<?xml version="1.0" encoding="UTF-8" standalone="no"?>
<!-- Created with Inkscape (http://www.inkscape.org/) -->

<svg
   xmlns:dc="http://purl.org/dc/elements/1.1/"
   xmlns:cc="http://creativecommons.org/ns#"
   xmlns:rdf="http://www.w3.org/1999/02/22-rdf-syntax-ns#"
   xmlns:svg="http://www.w3.org/2000/svg"
   xmlns="http://www.w3.org/2000/svg"
   xmlns:sodipodi="http://sodipodi.sourceforge.net/DTD/sodipodi-0.dtd"
   xmlns:inkscape="http://www.inkscape.org/namespaces/inkscape"
   width="28.71822mm"
   height="19.575199mm"
   viewBox="0 0 28.71822 19.575199"
   version="1.1"
   id="svg8818"
   inkscape:version="0.92.1 r15371"
   sodipodi:docname="network.svg">
  <defs
     id="defs8812" />
  <sodipodi:namedview
     id="base"
     pagecolor="#ffffff"
     bordercolor="#666666"
     borderopacity="1.0"
     inkscape:pageopacity="0.0"
     inkscape:pageshadow="2"
     inkscape:zoom="5.6"
     inkscape:cx="80.35485"
     inkscape:cy="56.741756"
     inkscape:document-units="mm"
     inkscape:current-layer="layer1"
     showgrid="false"
     fit-margin-top="0"
     fit-margin-left="0"
     fit-margin-right="0"
     fit-margin-bottom="0"
     inkscape:window-width="1920"
     inkscape:window-height="1017"
     inkscape:window-x="-8"
     inkscape:window-y="-8"
     inkscape:window-maximized="1" />
  <metadata
     id="metadata8815">
    <rdf:RDF>
      <cc:Work
         rdf:about="">
        <dc:format>image/svg+xml</dc:format>
        <dc:type
           rdf:resource="http://purl.org/dc/dcmitype/StillImage" />
        <dc:title></dc:title>
      </cc:Work>
    </rdf:RDF>
  </metadata>
  <g
     inkscape:label="Capa 1"
     inkscape:groupmode="layer"
     id="layer1"
     transform="translate(-21.926542,-25.652851)">
    <path
       inkscape:connector-curvature="0"
       id="path854"
       style="font-size:medium;font-family:'Times New Roman';overflow:visible;fill:#000000;fill-rule:evenodd;stroke:none;stroke-width:0.35277775;stroke-linejoin:miter;stroke-miterlimit:79.84031677;marker-start:none;marker-end:none"
       d="m 40.422032,37.140761 c 0,2.28388 -1.85137,4.13561 -4.13561,4.13561 -2.28388,0 -4.13561,-1.85173 -4.13561,-4.13561 0,-2.28424 1.85173,-4.13562 4.13561,-4.13562 2.28424,0 4.13561,1.85138 4.13561,4.13562 z m 0.0639,2.58445 c -0.16086,0.25329 -0.34501,0.49247 -0.54892,0.71437 l 4.61575,2.66418 c -0.1905,0.72108 0.11324,1.50601 0.79022,1.89689 0.81033,0.46778 1.84785,0.19085 2.31563,-0.61948 0.46779,-0.81033 0.18944,-1.84609 -0.62124,-2.31387 -0.67663,-0.39088 -1.50848,-0.26141 -2.03764,0.26388 z m -8.53968,-0.26247 -4.37268,2.52518 c -0.52952,-0.52528 -1.36102,-0.65652 -2.038,-0.26564 -0.81033,0.46778 -1.09079,1.50354 -0.62301,2.31387 0.46814,0.81068 1.50707,1.08938 2.31775,0.62124 0.67663,-0.39052 0.98037,-1.17757 0.78987,-1.89865 l 4.42767,-2.55517 c -0.18839,-0.23212 -0.35702,-0.47977 -0.50165,-0.74083 m 16.48848,-4.50462 c -1.06857,0 -1.96004,0.75706 -2.16641,1.76495 h -5.07295 c 0.0187,0.21131 0.0243,0.42404 0.0141,0.63711 -0.001,0.0854 -0.006,0.1704 -0.0124,0.25506 h 5.07154 c 0.20602,1.00789 1.09749,1.76495 2.16605,1.76495 1.22132,0 2.21015,-0.98884 2.21015,-2.21015 0,-1.22132 -0.98883,-2.21192 -2.21015,-2.21192 v 0 m -24.29615,-0.0582 c -1.22132,0 -2.21192,0.9906 -2.21192,2.21192 0,1.22132 0.9906,2.21192 2.21192,2.21192 1.06856,0 1.96003,-0.75883 2.16605,-1.76672 h 5.06272 c -0.0335,-0.29809 -0.0339,-0.5969 -0.005,-0.89041 h -5.05742 c -0.20638,-1.00753 -1.09749,-1.76671 -2.16641,-1.76671 v 0 m 2.20662,-5.50439 c -0.5722,0.0131 -1.12536,0.31644 -1.43263,0.84843 -0.46778,0.81033 -0.18732,1.84609 0.62301,2.31387 0.67663,0.39053 1.50848,0.26247 2.038,-0.26211 l 4.37444,2.52518 c 0.14499,-0.2607 0.31362,-0.50835 0.50165,-0.74083 l -4.42948,-2.55694 c 0.19015,-0.72107 -0.11324,-1.50812 -0.78987,-1.89865 -0.27869,-0.16086 -0.58561,-0.23565 -0.88512,-0.22895 v 0 m 19.80177,-0.3429 c -0.27305,0.007 -0.55104,0.0808 -0.80433,0.22684 -0.67663,0.39088 -0.98002,1.17792 -0.78987,1.89865 l -4.61045,2.66241 c 0.1979,0.22437 0.37712,0.46567 0.53304,0.72143 l 4.52438,-2.61126 c 0.52917,0.52458 1.36102,0.65264 2.03764,0.26211 0.81033,-0.46778 1.08903,-1.50353 0.62124,-2.31386 -0.32173,-0.55704 -0.91087,-0.86219 -1.51165,-0.84632 v 0 m -9.85943,-3.39972 c -1.22132,0 -2.21368,0.9906 -2.21368,2.21192 0,1.06856 0.76059,1.96003 1.76847,2.16605 v 2.19781 c 0.11642,-0.008 0.23389,-0.012 0.35172,-0.0106 0.17992,-0.005 0.35948,0.002 0.53869,0.0176 v -2.20487 c 1.00683,-0.20672 1.76672,-1.09819 1.76672,-2.16605 0,-1.22132 -0.9906,-2.21192 -2.21192,-2.21192 v 0" />
  </g>
</svg>
