<?xml version="1.0" encoding="UTF-8" standalone="no"?>
<!-- Created with Inkscape (http://www.inkscape.org/) -->

<svg
   xmlns:dc="http://purl.org/dc/elements/1.1/"
   xmlns:cc="http://creativecommons.org/ns#"
   xmlns:rdf="http://www.w3.org/1999/02/22-rdf-syntax-ns#"
   xmlns:svg="http://www.w3.org/2000/svg"
   xmlns="http://www.w3.org/2000/svg"
   xmlns:sodipodi="http://sodipodi.sourceforge.net/DTD/sodipodi-0.dtd"
   xmlns:inkscape="http://www.inkscape.org/namespaces/inkscape"
   width="102mm"
   height="102mm"
   viewBox="0 0 102 102"
   version="1.1"
   id="svg28998"
   inkscape:version="0.92.2 (5c3e80d, 2017-08-06)"
   sodipodi:docname="audiologia.svg">
  <defs
     id="defs28992" />
  <sodipodi:namedview
     id="base"
     pagecolor="#ffffff"
     bordercolor="#666666"
     borderopacity="1.0"
     inkscape:pageopacity="0.0"
     inkscape:pageshadow="2"
     inkscape:zoom="0.35"
     inkscape:cx="-110"
     inkscape:cy="560"
     inkscape:document-units="mm"
     inkscape:current-layer="layer1"
     showgrid="false"
     inkscape:window-width="1299"
     inkscape:window-height="713"
     inkscape:window-x="67"
     inkscape:window-y="27"
     inkscape:window-maximized="1" />
  <metadata
     id="metadata28995">
    <rdf:RDF>
      <cc:Work
         rdf:about="">
        <dc:format>image/svg+xml</dc:format>
        <dc:type
           rdf:resource="http://purl.org/dc/dcmitype/StillImage" />
        <dc:title></dc:title>
      </cc:Work>
    </rdf:RDF>
  </metadata>
  <g
     inkscape:label="Capa 1"
     inkscape:groupmode="layer"
     id="layer1"
     transform="translate(0,-195)">
    <path
       d="m 77.009481,195.77245 c -7.432343,0.16861 -14.706551,5.94541 -18.100371,15.15818 -2.882924,7.2928 -4.184495,16.00034 -2.943743,24.20262 0.364927,2.29054 2.299041,3.75585 3.819568,2.56004 2.29904,-1.60005 2.213888,-5.65904 2.517995,-8.70754 0.450075,-6.45065 1.021793,-13.65923 4.573749,-18.39197 4.123673,-5.62534 10.303102,-8.05064 15.995961,-7.0233 5.376584,1.44847 9.305633,8.13493 10.120637,15.42773 1.617836,10.84649 0.109482,22.48462 -4.026363,31.86584 -3.74658,7.81493 -10.668026,12.39608 -13.052213,21.5415 -1.338068,4.85062 -1.812471,10.94756 -5.181961,13.99605 -2.761282,2.13901 -6.714655,1.16215 -8.624438,-2.37474 -1.508364,-3.87376 0.01212,-8.2865 0.705522,-12.17713 0.425752,-2.81269 0.547391,-6.51801 -1.240748,-8.48858 -1.897618,-1.54947 -4.245315,0.16861 -5.619873,2.08849 -3.041059,4.39587 -3.089714,11.31808 -1.544858,16.75822 1.873292,6.68642 5.948306,12.90129 11.312731,13.79396 5.060322,1.02738 10.643701,-2.54322 12.650797,-9.24648 2.140906,-6.38332 4.062852,-13.54136 8.393318,-17.68458 4.02636,-4.48011 7.347196,-10.156 9.402948,-16.75823 3.503298,-9.9539 6.337561,-21.28886 4.598071,-32.47224 -1.630002,-10.93071 -7.845921,-20.59831 -15.886474,-22.88888 -2.566653,-0.84208 -5.230617,-1.21265 -7.870255,-1.17896 z"
       id="path1712"
       inkscape:connector-curvature="0"
       style="font-size:medium;font-family:'Times New Roman';overflow:visible;fill:#c1bfd0;fill-rule:evenodd;stroke:none;stroke-width:1.4313463;stroke-linejoin:miter;stroke-miterlimit:79.84031677;marker-start:none;marker-end:none;fill-opacity:1" />
    <path
       d="m 76.875671,210.49276 c -5.035988,0.15135 -8.928539,6.45064 -9.926007,12.90132 -0.778509,3.82319 -0.06083,7.84853 1.325903,11.21706 1.179928,3.50319 2.907247,6.90536 3.211356,10.82968 -0.23113,2.71163 -2.882923,2.76213 -3.624942,5.12009 -2.128738,4.21062 -2.749116,10.72865 0.182478,14.535 2.104411,2.72848 5.70502,2.17271 7.493165,-0.87577 2.213888,-3.33481 3.138369,-7.83176 4.269644,-11.99185 0.948806,-4.24428 0.498733,-9.09489 -1.484038,-12.64865 -2.226051,-4.22743 -5.632037,-7.71381 -6.264578,-13.17078 -0.510896,-4.0085 1.277246,-8.25281 4.099345,-9.39808 3.004568,-1.48217 6.605178,0.65682 7.833762,4.71589 2.177397,6.08007 1.021798,13.10341 0.158133,19.43616 -0.01212,0.84211 -0.437912,3.03162 0.608211,2.74533 1.204259,-1.39794 1.496201,-3.72222 2.201726,-5.59169 2.238218,-7.44437 2.347696,-17.06141 -1.848961,-23.24261 -2.116576,-3.09898 -5.181962,-4.66534 -8.235184,-4.5811 z"
       id="path1714"
       inkscape:connector-curvature="0"
       style="font-size:medium;font-family:'Times New Roman';overflow:visible;fill:#c1bfd0;fill-rule:evenodd;stroke:none;stroke-width:1.4313463;stroke-linejoin:miter;stroke-miterlimit:79.84031677;marker-start:none;marker-end:none;fill-opacity:1" />
    <path
       d="m 35.018567,219.97505 c -0.754182,0.0505 -1.362395,0.82527 -1.471873,1.85264 l -3.478967,31.19222 -3.089715,-19.35197 c -0.182477,-1.17895 -1.021794,-1.92007 -1.873288,-1.66742 -0.523064,0.15136 -0.960977,0.69057 -1.143438,1.39795 l -3.746583,14.1645 -2.226054,-7.47808 c -0.328434,-1.12845 -1.252915,-1.65056 -2.055757,-1.19579 -0.255437,0.15134 -0.486567,0.38718 -0.656867,0.70738 l -3.284341,5.99593 H 3.8659809 c -0.8758243,-0.0191 -1.581349,0.94315 -1.5935142,2.1558 -0.012064,1.19582 0.6811948,2.1895 1.5448578,2.20636 0.024482,0 0.036482,0 0.048654,0 h 8.9042175 c 0.486569,0 0.960972,-0.31987 1.252915,-0.85897 l 2.09225,-3.82321 2.724785,9.14543 c 0.328434,1.11162 1.252915,1.65055 2.055756,1.19579 0.413584,-0.23585 0.729852,-0.69049 0.875825,-1.26316 l 3.296503,-12.42972 3.722255,23.4447 c 0.194619,1.16208 1.033957,1.92 1.885455,1.65055 0.63254,-0.18531 1.119108,-0.90951 1.216423,-1.80213 l 3.51546,-31.47855 3.673597,22.08046 c 0.206785,1.17895 1.046124,1.90319 1.897618,1.63369 0.486572,-0.15191 0.887991,-0.62316 1.082619,-1.24631 l 3.624938,-11.60443 3.126208,11.16649 c 0.304123,1.12848 1.228588,1.68425 2.031426,1.24636 0.328434,-0.1686 0.608211,-0.48845 0.790676,-0.90949 l 2.663964,-6.1475 h 7.395852 c 0.875824,0.0192 1.593513,-0.94313 1.605676,-2.15578 0.01213,-1.19587 -0.693361,-2.18957 -1.557021,-2.20638 -0.01212,0 -0.03649,0 -0.04865,0 h -8.283842 c -0.547388,0 -1.058285,0.40437 -1.338063,1.06106 l -1.484034,3.38533 -3.357328,-11.99184 c -0.304091,-1.12844 -1.216424,-1.68425 -2.031427,-1.26317 -0.401417,0.21914 -0.71769,0.64 -0.887987,1.17897 l -3.235685,10.39178 -4.439942,-26.69528 c -0.170315,-1.02736 -0.851499,-1.75158 -1.630007,-1.68421 z"
       id="path1716"
       inkscape:connector-curvature="0"
       style="font-size:medium;font-family:'Times New Roman';overflow:visible;fill:#c1bfd0;fill-rule:evenodd;stroke:none;stroke-width:1.4313463;stroke-linejoin:miter;stroke-miterlimit:79.84031677;marker-start:none;marker-end:none;fill-opacity:1" />
  </g>
</svg>
