<?xml version="1.0" encoding="UTF-8" standalone="no"?>
<!-- Created with Inkscape (http://www.inkscape.org/) -->

<svg
   xmlns:dc="http://purl.org/dc/elements/1.1/"
   xmlns:cc="http://creativecommons.org/ns#"
   xmlns:rdf="http://www.w3.org/1999/02/22-rdf-syntax-ns#"
   xmlns:svg="http://www.w3.org/2000/svg"
   xmlns="http://www.w3.org/2000/svg"
   xmlns:sodipodi="http://sodipodi.sourceforge.net/DTD/sodipodi-0.dtd"
   xmlns:inkscape="http://www.inkscape.org/namespaces/inkscape"
   width="28.718784mm"
   height="28.718235mm"
   viewBox="0 0 28.718784 28.718235"
   version="1.1"
   id="svg8676"
   inkscape:version="0.92.2 (5c3e80d, 2017-08-06)"
   sodipodi:docname="laboratorio.svg">
  <defs
     id="defs8670" />
  <sodipodi:namedview
     id="base"
     pagecolor="#ffffff"
     bordercolor="#666666"
     borderopacity="1.0"
     inkscape:pageopacity="0.0"
     inkscape:pageshadow="2"
     inkscape:zoom="0.35"
     inkscape:cx="-447.15686"
     inkscape:cy="2.8420976"
     inkscape:document-units="mm"
     inkscape:current-layer="layer1"
     showgrid="false"
     fit-margin-top="0"
     fit-margin-left="0"
     fit-margin-right="0"
     fit-margin-bottom="0"
     inkscape:window-width="1299"
     inkscape:window-height="713"
     inkscape:window-x="67"
     inkscape:window-y="27"
     inkscape:window-maximized="1" />
  <metadata
     id="metadata8673">
    <rdf:RDF>
      <cc:Work
         rdf:about="">
        <dc:format>image/svg+xml</dc:format>
        <dc:type
           rdf:resource="http://purl.org/dc/dcmitype/StillImage" />
        <dc:title></dc:title>
      </cc:Work>
    </rdf:RDF>
  </metadata>
  <g
     inkscape:label="Capa 1"
     inkscape:groupmode="layer"
     id="layer1"
     transform="translate(-89.206085,-120.86708)">
    <g
       id="g8714">
      <g
         id="g8795">
        <path
           d="m 100.20131,120.86744 c -0.20461,0.006 -0.409221,0.0988 -0.543276,0.25118 -0.137584,0.1524 -0.208139,0.363 -0.1905,0.56726 v 23.79839 c 0,2.25319 1.845026,4.10104 4.095746,4.10104 2.25425,0 4.09928,-1.84785 4.09928,-4.10104 v -23.84672 c 0.004,-0.22119 -0.0952,-0.44097 -0.26105,-0.58526 -0.16934,-0.14393 -0.40217,-0.20849 -0.62089,-0.17215 -2.16253,0.0169 -4.42736,-0.0169 -6.55109,-0.0127 h -0.0176 -0.0106 v 0 m 0.78317,1.52929 h 5.16114 v 23.08754 c 0,1.43016 -1.15006,2.58445 -2.58234,2.58445 -1.42875,0 -2.5788,-1.15429 -2.5788,-2.58445 z m 0.77256,8.9729 v 14.09312 c 0,1.00013 0.80786,1.80552 1.80622,1.80552 1.00189,0 1.80623,-0.80539 1.80623,-1.80552 v -14.09312 z m 8.70303,-10.50219 c -0.20461,0.006 -0.4057,0.0988 -0.54328,0.25118 -0.13758,0.1524 -0.20814,0.363 -0.1905,0.56726 v 23.79839 c 0,2.25319 1.84503,4.10104 4.09575,4.10104 2.25425,0 4.10281,-1.84785 4.10281,-4.10104 v -23.84672 c 0,-0.22119 -0.0988,-0.44097 -0.26459,-0.58526 -0.16933,-0.14393 -0.40216,-0.20849 -0.62089,-0.17215 -2.16252,0.0169 -4.42736,-0.0169 -6.55108,-0.0127 h -0.0141 -0.0141 v 0 m 0.78317,1.52929 h 5.16466 v 23.08754 c 0,1.43016 -1.15358,2.58445 -2.58586,2.58445 -1.42875,0 -2.5788,-1.15429 -2.5788,-2.58445 z m 0.77609,3.29177 v 19.77425 c 0,1.00013 0.80433,1.80552 1.80269,1.80552 1.00189,0 1.80622,-0.80539 1.80622,-1.80552 V 125.6885 Z m -22.076837,-4.82106 c -0.204611,0.006 -0.409222,0.0988 -0.546805,0.25118 -0.134056,0.1524 -0.204611,0.363 -0.186972,0.56726 v 23.79839 c 0,2.25319 1.8415,4.10104 4.09575,4.10104 2.25425,0 4.099277,-1.84785 4.099277,-4.10104 v -23.84672 c 0.0035,-0.22119 -0.09525,-0.44097 -0.264583,-0.58526 -0.165806,-0.14393 -0.398639,-0.20849 -0.617361,-0.17215 -2.162528,0.0169 -4.427361,-0.0169 -6.551083,-0.0127 h -0.01764 -0.01058 v 0 m 0.779639,1.52929 h 5.164667 v 23.08754 c 0,1.43016 -1.150056,2.58445 -2.582333,2.58445 -1.42875,0 -2.582334,-1.15429 -2.582334,-2.58445 z m 0.776108,13.15014 v 9.91588 c 0,1.00013 0.807862,1.80552 1.806223,1.80552 0.998361,0 1.806222,-0.80539 1.806222,-1.80552 v -9.91588 z"
           style="font-size:medium;font-family:'Times New Roman';overflow:visible;fill:#c1bfd0;fill-rule:evenodd;stroke:none;stroke-width:0.35277775;stroke-linejoin:miter;stroke-miterlimit:79.84031677;marker-start:none;marker-end:none;fill-opacity:1"
           id="path3761" />
      </g>
    </g>
  </g>
</svg>
