<?xml version="1.0" encoding="UTF-8" standalone="no"?>
<!-- Created with Inkscape (http://www.inkscape.org/) -->

<svg
   xmlns:dc="http://purl.org/dc/elements/1.1/"
   xmlns:cc="http://creativecommons.org/ns#"
   xmlns:rdf="http://www.w3.org/1999/02/22-rdf-syntax-ns#"
   xmlns:svg="http://www.w3.org/2000/svg"
   xmlns="http://www.w3.org/2000/svg"
   xmlns:sodipodi="http://sodipodi.sourceforge.net/DTD/sodipodi-0.dtd"
   xmlns:inkscape="http://www.inkscape.org/namespaces/inkscape"
   width="102mm"
   height="102mm"
   viewBox="0 0 102 102"
   version="1.1"
   id="svg28998"
   inkscape:version="0.92.2 (5c3e80d, 2017-08-06)"
   sodipodi:docname="oftalmologia.svg">
  <defs
     id="defs28992" />
  <sodipodi:namedview
     id="base"
     pagecolor="#ffffff"
     bordercolor="#666666"
     borderopacity="1.0"
     inkscape:pageopacity="0.0"
     inkscape:pageshadow="2"
     inkscape:zoom="0.35"
     inkscape:cx="-110"
     inkscape:cy="560"
     inkscape:document-units="mm"
     inkscape:current-layer="layer1"
     showgrid="false"
     inkscape:window-width="1299"
     inkscape:window-height="713"
     inkscape:window-x="67"
     inkscape:window-y="27"
     inkscape:window-maximized="1" />
  <metadata
     id="metadata28995">
    <rdf:RDF>
      <cc:Work
         rdf:about="">
        <dc:format>image/svg+xml</dc:format>
        <dc:type
           rdf:resource="http://purl.org/dc/dcmitype/StillImage" />
        <dc:title></dc:title>
      </cc:Work>
    </rdf:RDF>
  </metadata>
  <g
     inkscape:label="Capa 1"
     inkscape:groupmode="layer"
     id="layer1"
     transform="translate(0,-195)">
    <path
       d="m 50.295806,196.58704 c -27.75003,-0.34901 -49.75695975,47.98402 -49.75695975,47.98402 -0.44527304,0.96327 -0.45092784,2.32686 -0.0136895,3.30125 0,0 21.60372425,48.89175 49.35375625,49.24054 27.750034,0.34903 49.769213,-47.9839 49.769213,-47.9839 0.433024,-0.96556 0.438724,-2.33768 0.01389,-3.31187 0,0 -21.616021,-48.88123 -49.366056,-49.23004 m -0.02884,6.97799 c 13.715674,0.17233 24.776872,19.7207 24.677852,43.59738 -0.09899,23.86815 -11.321196,43.14487 -25.036869,42.97241 C 36.192436,289.9623 25.119017,270.4055 25.218,246.53735 25.31702,222.66064 36.55145,203.39263 50.267126,203.56503 Z"
       id="path3402"
       inkscape:connector-curvature="0"
       style="font-size:medium;font-family:'Times New Roman';overflow:visible;fill:#c1bfd0;fill-rule:evenodd;stroke:none;stroke-width:1.61732125;stroke-linejoin:miter;stroke-miterlimit:79.84031677;marker-start:none;marker-end:none;fill-opacity:1"
       inkscape:transform-center-x="-58.466107"
       inkscape:transform-center-y="-163.89217" />
    <path
       style="font-size:medium;font-family:'Times New Roman';overflow:visible;fill:#c1bfd0;fill-rule:evenodd;stroke:none;stroke-width:1.61732125;stroke-linejoin:miter;stroke-miterlimit:79.84031677;marker-start:none;marker-end:none;fill-opacity:1"
       inkscape:connector-curvature="0"
       id="path3407"
       d="m 63.117118,261.67681 c 0.001,-0.2432 0.002,-0.48213 -0.02153,-0.73014 -0.191899,-3.96957 -2.214476,-6.91653 -4.483615,-6.56518 -0.797239,0.11792 -1.510299,0.62759 -2.101845,1.39269 L 42.376677,235.15446 c 0.286511,-1.10188 0.43874,-2.3441 0.370556,-3.6361 -0.204164,-3.96973 -2.226756,-6.91246 -4.508141,-6.56336 -2.269124,0.34904 -3.963035,3.87043 -3.75884,7.83592 0.204199,3.96765 2.214539,6.90164 4.495932,6.5505 0.784999,-0.1229 1.497989,-0.61501 2.089525,-1.37793 l 14.133508,20.60478 c -0.286476,1.09966 -0.426479,2.3421 -0.358305,3.63619 0.191933,3.96534 2.214487,6.91446 4.495873,6.56536 2.1342,-0.32788 3.752849,-3.4356 3.780267,-7.09085 z"
       inkscape:transform-center-x="-57.167734"
       inkscape:transform-center-y="-163.87973" />
    <path
       style="font-size:medium;font-family:'Times New Roman';overflow:visible;fill:#c1bfd0;fill-rule:evenodd;stroke:none;stroke-width:1.61732125;stroke-linejoin:miter;stroke-miterlimit:79.84031677;marker-start:none;marker-end:none;fill-opacity:1"
       inkscape:connector-curvature="0"
       id="path3409"
       d="m 35.864154,268.5644 c -0.241168,-0.96549 -0.383985,-1.99162 -0.440944,-3.03587 -0.282827,-5.7015 2.127756,-10.59658 5.341337,-11.09181 3.225828,-0.49482 6.089112,3.67243 6.372245,9.2928 0.295024,5.70801 -2.115501,10.59667 -5.341335,11.0918 -0.551938,0.083 -1.115567,0.0302 -1.654121,-0.1616 l -1.050985,2.18919 c 3.123582,3.47075 6.841471,5.51076 10.825023,5.56084 9.805667,0.12349 18.055546,-11.80489 20.095531,-27.83804 L 59.020959,238.53279 c -0.565536,0.4047 -1.154961,0.6598 -1.755979,0.75252 -3.21357,0.49482 -6.076855,-3.67223 -6.359987,-9.2926 -0.02328,-0.32847 -0.03405,-0.65561 -0.03266,-0.97785 0.0219,-5.29855 2.332201,-9.64644 5.361786,-10.11203 1.569978,-0.23834 3.086476,0.59584 4.292714,2.3502 1.206221,1.75873 1.943727,4.2221 2.079543,6.94048 0.05719,0.98667 0.01668,1.94861 -0.08555,2.88846 l 7.822132,11.4109 c -1.226804,-17.48472 -9.750738,-31.10258 -20.132483,-31.23311 -11.288774,-0.14215 -20.510892,15.67716 -20.592352,35.32016 -0.03832,9.24422 1.949185,17.68377 5.244628,24.04843 l 1.001436,-2.06391 v 0 m 3.258975,-26.2207 c -1.55772,0.23897 -3.086485,-0.59339 -4.29271,-2.35019 -1.206221,-1.75872 -1.931472,-4.22195 -2.079535,-6.94259 -0.01077,-0.32664 -0.0219,-0.65543 -0.0205,-0.97767 0.0219,-5.29861 2.332198,-9.64652 5.361787,-10.11203 3.22583,-0.49481 6.089112,3.67244 6.372249,9.29279 0.04496,0.9844 0.01668,1.94644 -0.09773,2.884 l 12.342432,17.99797 c 0.553285,-0.4065 1.142713,-0.66213 1.743718,-0.75275 3.225834,-0.4948 6.089116,3.67245 6.372259,9.2907 0.282654,5.72923 -2.115508,10.59885 -5.341325,11.08966 -1.557729,0.24076 -3.086485,-0.59341 -4.292717,-2.3502 -1.19397,-1.75635 -1.931472,-4.21981 -2.079554,-6.9383 -0.01077,-0.32666 -0.0219,-0.64905 -0.02049,-0.97131 v 0 c 0.0027,-0.65076 0.04211,-1.2905 0.106008,-1.91708 L 40.866885,241.58889 c -0.553286,0.4071 -1.142712,0.66213 -1.743718,0.75276 z"
       inkscape:transform-center-x="-58.357459"
       inkscape:transform-center-y="-163.90736" />
    <path
       style="font-size:medium;font-family:'Times New Roman';overflow:visible;fill:#c1bfd0;fill-rule:evenodd;stroke:none;stroke-width:1.61732125;stroke-linejoin:miter;stroke-miterlimit:79.84031677;marker-start:none;marker-end:none;fill-opacity:1"
       inkscape:connector-curvature="0"
       id="path3411"
       d="m 45.428844,264.72386 c 0.001,-0.24558 -0.01009,-0.48454 -0.02154,-0.73224 -0.204198,-3.96127 -2.214494,-6.91229 -4.495879,-6.56324 -2.269134,0.35145 -3.963035,3.87041 -3.771102,7.83581 0.08009,1.37103 0.369122,2.62088 0.806118,3.65292 l -1.990626,4.13211 c 0.499166,0.81936 1.035266,1.60078 1.583851,2.3268 l 2.015385,-4.1894 c 0.635285,0.50935 1.345206,0.75743 2.093404,0.64304 2.134207,-0.32968 3.752905,-3.44836 3.780323,-7.10368 z"
       inkscape:transform-center-x="-49.069553"
       inkscape:transform-center-y="-144.35393" />
    <path
       style="font-size:medium;font-family:'Times New Roman';overflow:visible;fill:#c1bfd0;fill-rule:evenodd;stroke:none;stroke-width:1.61732125;stroke-linejoin:miter;stroke-miterlimit:79.84031677;marker-start:none;marker-end:none;fill-opacity:1"
       inkscape:connector-curvature="0"
       id="path3413"
       d="m 70.556749,247.09234 c 5.15e-4,-0.12408 -0.01111,-0.24558 -0.01077,-0.37322 l -10.01522,-14.61824 c 0.28651,-1.10182 0.426475,-2.34215 0.358305,-3.63619 -0.204198,-3.9676 -2.21449,-6.91437 -4.495873,-6.56534 -2.281392,0.35144 -3.975244,3.85742 -3.77105,7.8229 0.204199,3.9677 2.214487,6.91453 4.495869,6.56538 0.785004,-0.1229 1.498056,-0.6299 2.101847,-1.39262 l 11.17269,16.31008 c 0.09138,-1.34964 0.158369,-2.71891 0.164136,-4.11231 z"
       inkscape:transform-center-x="-69.958301"
       inkscape:transform-center-y="-174.20392" />
  </g>
</svg>
