<?xml version="1.0" encoding="UTF-8" standalone="no"?>
<!-- Created with Inkscape (http://www.inkscape.org/) -->

<svg
   xmlns:dc="http://purl.org/dc/elements/1.1/"
   xmlns:cc="http://creativecommons.org/ns#"
   xmlns:rdf="http://www.w3.org/1999/02/22-rdf-syntax-ns#"
   xmlns:svg="http://www.w3.org/2000/svg"
   xmlns="http://www.w3.org/2000/svg"
   xmlns:sodipodi="http://sodipodi.sourceforge.net/DTD/sodipodi-0.dtd"
   xmlns:inkscape="http://www.inkscape.org/namespaces/inkscape"
   width="102mm"
   height="102mm"
   viewBox="0 0 102 102"
   version="1.1"
   id="svg28998"
   inkscape:version="0.92.2 (5c3e80d, 2017-08-06)"
   sodipodi:docname="psicologia.svg">
  <defs
     id="defs28992" />
  <sodipodi:namedview
     id="base"
     pagecolor="#ffffff"
     bordercolor="#666666"
     borderopacity="1.0"
     inkscape:pageopacity="0.0"
     inkscape:pageshadow="2"
     inkscape:zoom="0.35"
     inkscape:cx="-110"
     inkscape:cy="560"
     inkscape:document-units="mm"
     inkscape:current-layer="layer1"
     showgrid="false"
     inkscape:window-width="1299"
     inkscape:window-height="713"
     inkscape:window-x="67"
     inkscape:window-y="27"
     inkscape:window-maximized="1" />
  <metadata
     id="metadata28995">
    <rdf:RDF>
      <cc:Work
         rdf:about="">
        <dc:format>image/svg+xml</dc:format>
        <dc:type
           rdf:resource="http://purl.org/dc/dcmitype/StillImage" />
        <dc:title></dc:title>
      </cc:Work>
    </rdf:RDF>
  </metadata>
  <g
     inkscape:label="Capa 1"
     inkscape:groupmode="layer"
     id="layer1"
     transform="translate(0,-195)">
    <path
       d="m 47.429136,194.95188 c -3.379626,-0.0246 -6.759252,0.21761 -10.098642,0.703 -18.266078,2.6465 -27.7209825,11.76051 -32.4819631,20.84595 -8.3417762,15.87523 -4.30500114,31.31124 6.4373811,43.37039 2.749301,3.07326 5.39131,5.93127 7.175,8.48942 1.770281,2.5582 2.561544,4.69328 2.212852,6.40036 -1.958038,9.42638 -3.902665,19.56194 -3.902665,19.56194 -0.09387,0.46534 0.05365,0.97299 0.375523,1.33507 0.335262,0.36331 0.844906,0.5823 1.354534,0.5823 h 48.763176 c 0.536447,0 1.072896,-0.25253 1.394765,-0.65821 0.321882,-0.40441 0.429161,-0.94811 0.268204,-1.43089 0,0 -0.482804,-1.56897 -0.362102,-3.36067 0.120708,-1.79294 0.670561,-3.49507 2.937058,-4.47553 2.23967,-0.97174 5.565651,-0.52258 9.521962,-0.59597 3.956306,-0.0723 7.73827,-0.65822 11.667754,-3.77253 3.030934,-2.40387 3.835609,-6.86945 3.111403,-8.63502 -0.308462,-0.73411 -0.764442,-1.2654 -1.20701,-1.67725 l 0.85832,-2.60916 c 0.1475,-0.46411 0.05363,-0.99291 -0.241402,-1.3923 0,0 -0.777854,-1.06631 -1.20701,-2.1712 -0.2146,-0.55243 -0.321882,-1.09367 -0.295042,-1.36121 0.027,-0.23384 0.13412,-0.36706 0.335264,-0.36706 h 1.890981 c 2.574953,0 5.337663,-1.46072 4.935323,-4.8052 -0.40234,-3.34452 -3.312566,-7.89718 -5.444951,-11.90113 -0.791261,-1.49933 -1.582524,-2.99115 -2.172616,-4.20927 -0.603504,-1.21812 -0.844906,-3.00731 -0.844906,-3.45651 0,-2.30184 1.046075,-7.7155 0.147532,-12.01559 C 87.86393,204.96051 68.001926,195.09496 47.42912,194.95188 m 0.858318,12.76214 c 2.387199,0.0399 4.546403,1.86013 4.908505,4.05126 -0.388926,4.10845 -3.111403,7.62341 -4.868269,11.32007 1.864159,0.0497 4.09042,0.255 5.619296,1.52541 0.348682,0.0808 0.952199,1.25546 0.938787,0.56985 1.823926,-3.94422 5.471773,-6.85823 8.382009,-10.10441 2.132383,-2.09407 3.594204,-5.08894 6.705607,-6.07688 3.379626,-1.10115 6.97383,2.05174 6.464205,5.21583 -1.461822,3.46522 -4.586634,6.05698 -7.148178,8.83783 -0.06706,0.35336 -1.381355,0.90956 -0.469392,0.97547 2.856589,0.48652 5.76682,2.66019 5.659532,5.55182 -0.590092,2.64522 -2.829767,4.64474 -4.680512,6.61562 -3.272338,3.01478 -5.59248,6.90302 -9.226915,9.58434 -3.473507,2.22967 -8.650235,-1.39729 -7.60416,-5.10262 1.958037,-3.53862 5.082849,-6.41778 7.95285,-9.33177 -1.998271,-0.45167 -4.09042,-1.23804 -5.216964,-2.93642 -0.214562,1.46323 -0.965608,3.13173 -1.756869,4.53153 -2.615184,4.31874 -4.157477,9.18745 -7.174999,13.28846 -2.682241,2.84931 -8.516123,0.81745 -8.757525,-2.89909 0.697387,-4.0338 3.205281,-7.50647 4.988976,-11.18694 -2.092152,0.0646 -4.479348,-0.32977 -6.021639,-1.82901 -0.68397,-0.96554 -0.321882,0.6084 -0.45598,1.05136 -0.455983,4.16197 0.496216,8.39487 -0.429159,12.50833 -0.938784,3.76136 -7.26888,4.24035 -9.213503,1.0066 -1.220422,-3.64438 -0.64374,-7.58116 -0.616916,-11.34993 0.295042,-0.978 -0.281624,-0.63457 -0.885139,-0.42431 -2.682244,1.36122 -6.745845,0.83115 -8.140607,-1.89993 -0.938787,-4.51908 -0.388928,-9.22107 -0.375522,-13.81232 0.09387,-2.45486 -0.737618,-5.25315 1.086308,-7.35714 1.917802,-2.751 6.906773,-2.37898 8.502709,0.48774 1.20701,3.85089 0.563273,7.9718 0.523037,11.93349 0.75103,-0.21515 1.904393,-0.76275 2.870001,-0.87347 2.574953,-0.57983 5.860698,0.59225 6.343502,3.21509 1.689812,-3.71405 4.036778,-7.86978 5.954582,-11.74934 0.87173,-2.40262 2.642008,-5.19964 5.65953,-5.31787 0.160922,-0.0146 0.321882,-0.0211 0.482804,-0.0176 z"
       id="path4180"
       inkscape:connector-curvature="0"
       style="font-size:medium;font-family:'Times New Roman';overflow:visible;fill:#c1bfd0;fill-rule:evenodd;stroke:none;stroke-width:1.29177153;stroke-linejoin:miter;stroke-miterlimit:79.84031677;marker-start:none;marker-end:none;fill-opacity:1" />
    <path
       d="m 48.166752,210.56455 c -0.831494,-0.0211 -1.609343,0.42056 -1.958035,1.12482 l -7.429813,14.5352 c -0.496216,0.96426 -0.05363,2.11766 0.97902,2.5768 0.20118,0.0881 0.429159,0.14672 0.643737,0.17176 l 7.134766,0.82369 -6.169158,12.10394 c -0.549861,0.93819 -0.174342,2.11149 0.831494,2.62162 1.019251,0.51012 2.279906,0.16296 2.829765,-0.77518 0.04022,-0.0635 0.06706,-0.12701 0.09387,-0.19292 l 7.416401,-14.52024 c 0.496216,-0.96431 0.05363,-2.11769 -0.992427,-2.57556 -0.201182,-0.0896 -0.415752,-0.14813 -0.63033,-0.17282 l -7.148178,-0.82369 6.209396,-12.11143 c 0.509623,-0.95803 0.08047,-2.11641 -0.952199,-2.58798 -0.268242,-0.12207 -0.56327,-0.18906 -0.858315,-0.19787 v 0 m -26.192105,0.4156 c -1.153365,0.0146 -2.078737,0.87969 -2.065325,1.94722 v 0 l -0.13412,16.13651 c -0.0133,1.06758 0.911958,1.94228 2.051916,1.95472 0.227982,0 0.455978,-0.0318 0.683968,-0.097 l 6.799485,-2.06169 -0.09387,13.43403 c -0.02698,1.06756 0.885144,1.94972 2.038507,1.97211 1.153362,0.0211 2.105561,-0.82615 2.11897,-1.8937 0,-0.0176 0,-0.0375 0,-0.0571 l 0.120708,-16.11288 c 0,-1.06758 -0.925371,-1.93854 -2.078736,-1.94476 -0.214601,-10e-4 -0.442572,0.0318 -0.643737,0.0945 l -6.812896,2.06169 0.120692,-13.45642 c 0.027,-1.0676 -0.885142,-1.95345 -2.038507,-1.97836 -0.027,0 -0.04022,0 -0.06706,0 v 0 m 49.313035,0.66441 c -0.616916,0.0146 -1.193596,0.26383 -1.582524,0.70176 l -11.292238,12.28562 c -0.751027,0.81123 -0.643737,2.03183 0.227982,2.72486 0.17434,0.13691 0.375522,0.24761 0.57668,0.3259 l 6.638552,2.47605 -9.374441,10.23136 c -0.764439,0.80499 -0.670558,2.02683 0.20118,2.72861 0.871732,0.70176 2.18603,0.61837 2.937055,-0.18659 0.0133,-0.0146 0.027,-0.0248 0.027,-0.0352 L 70.912331,230.6178 c 0.737618,-0.8137 0.63033,-2.03308 -0.2414,-2.72486 -0.174342,-0.13299 -0.362104,-0.24019 -0.56327,-0.31848 l -6.651962,-2.47606 9.414672,-10.24627 c 0.764437,-0.80252 0.670561,-2.02438 -0.187762,-2.72861 -0.388926,-0.31495 -0.885139,-0.48527 -1.394767,-0.4803 z"
       id="path4182"
       inkscape:connector-curvature="0"
       style="font-size:medium;font-family:'Times New Roman';overflow:visible;fill:#c1bfd0;fill-rule:evenodd;stroke:none;stroke-width:1.29177153;stroke-linejoin:miter;stroke-miterlimit:79.84031677;marker-start:none;marker-end:none;fill-opacity:1" />
  </g>
</svg>
