<?xml version="1.0" encoding="UTF-8" standalone="no"?>
<!-- Created with Inkscape (http://www.inkscape.org/) -->

<svg
   xmlns:dc="http://purl.org/dc/elements/1.1/"
   xmlns:cc="http://creativecommons.org/ns#"
   xmlns:rdf="http://www.w3.org/1999/02/22-rdf-syntax-ns#"
   xmlns:svg="http://www.w3.org/2000/svg"
   xmlns="http://www.w3.org/2000/svg"
   xmlns:sodipodi="http://sodipodi.sourceforge.net/DTD/sodipodi-0.dtd"
   xmlns:inkscape="http://www.inkscape.org/namespaces/inkscape"
   width="102mm"
   height="102mm"
   viewBox="0 0 102 102"
   version="1.1"
   id="svg28998"
   inkscape:version="0.92.2 (5c3e80d, 2017-08-06)"
   sodipodi:docname="rayosx.svg">
  <defs
     id="defs28992" />
  <sodipodi:namedview
     id="base"
     pagecolor="#ffffff"
     bordercolor="#666666"
     borderopacity="1.0"
     inkscape:pageopacity="0.0"
     inkscape:pageshadow="2"
     inkscape:zoom="0.35"
     inkscape:cx="-110"
     inkscape:cy="560"
     inkscape:document-units="mm"
     inkscape:current-layer="layer1"
     showgrid="false"
     inkscape:window-width="1299"
     inkscape:window-height="713"
     inkscape:window-x="67"
     inkscape:window-y="27"
     inkscape:window-maximized="1" />
  <metadata
     id="metadata28995">
    <rdf:RDF>
      <cc:Work
         rdf:about="">
        <dc:format>image/svg+xml</dc:format>
        <dc:type
           rdf:resource="http://purl.org/dc/dcmitype/StillImage" />
        <dc:title></dc:title>
      </cc:Work>
    </rdf:RDF>
  </metadata>
  <g
     inkscape:label="Capa 1"
     inkscape:groupmode="layer"
     id="layer1"
     transform="translate(0,-195)">
    <path
       style="font-size:medium;font-family:'Times New Roman';overflow:visible;fill:#c1bfd0;fill-opacity:1;fill-rule:evenodd;stroke:none;stroke-width:1.43456602;stroke-linejoin:miter;stroke-miterlimit:79.84031677;marker-start:none;marker-end:none"
       inkscape:connector-curvature="0"
       id="path3119"
       stroke-miterlimit="79.8403193612775"
       d="m 6.7783651,196.46158 c -1.1753758,0 -2.3339642,0.35545 -3.1567282,0.95601 -0.822764,0.60055 -1.3265006,1.44622 -1.3265006,2.30419 v 80.53657 c 0,0.85793 0.4869444,1.70363 1.3097085,2.30419 0.8227639,0.60056 1.9981445,0.95597 3.1735203,0.95597 H 18.700055 c 1.158587,0 2.317171,-0.35541 3.139939,-0.95597 0.839552,-0.60056 1.309705,-1.45852 1.309705,-2.30419 v -32.50389 h 10.141835 c 2.804116,0 4.7183,0.15946 5.389949,0.2696 1.208961,0.2696 2.518663,0.74766 3.929121,1.55656 0.772387,0.44124 2.182843,1.29916 3.358219,2.79445 5.138081,6.3243 10.427282,13.51877 15.279909,19.4631 -5.423528,6.72875 -10.813472,13.6781 -15.397445,19.51212 -0.789184,0.98054 -0.789184,2.26744 -0.01666,3.2602 0.772392,0.99277 2.300379,1.63011 3.861956,1.63011 h 14.22207 c 1.561571,0 3.072772,-0.63734 3.845164,-1.61784 1.81344,-2.2797 4.147404,-5.20894 6.397416,-8.04017 2.132469,2.64738 4.651137,5.57665 7.371298,8.12598 0.805971,0.93148 2.300384,1.54431 3.811584,1.53203 h 12.996321 c 1.578365,0 3.106344,-0.66183 3.878734,-1.66686 0.77239,-1.00504 0.75561,-2.31646 -0.084,-3.29695 -5.507466,-6.45912 -11.333982,-13.13884 -16.556015,-19.58568 5.524272,-6.45911 11.048549,-12.93049 16.556015,-19.38956 0.83957,-0.98053 0.85636,-2.29196 0.084,-3.29698 -0.77239,-0.99277 -2.300369,-1.66685 -3.878734,-1.66685 H 85.344117 c -1.5112,0 -3.005613,0.60056 -3.811584,1.53204 -2.720161,2.54933 -5.238829,5.47857 -7.371298,8.13821 L 63.230219,244.98448 c 5.2892,-1.53204 9.806007,-3.77494 13.029904,-6.83905 4.785465,-4.5226 7.136221,-10.16054 7.136221,-16.44805 0,-4.87801 -1.39366,-9.47415 -4.214568,-13.60454 -2.837686,-4.15489 -6.917927,-7.32928 -12.106384,-9.11872 -5.188453,-1.80168 -11.854526,-2.51254 -20.26687,-2.51254 H 6.7953 6.7786412 m 16.3713338,15.41849 h 24.112041 c 5.944052,0 9.40302,1.02956 11.417953,2.63515 2.317176,1.8262 3.47576,4.02007 3.47576,7.18219 0,2.12037 -0.621267,3.95884 -1.897392,5.69923 -1.175381,1.64234 -2.652996,2.6719 -4.869425,3.39502 -2.182844,0.71088 -5.910468,1.22562 -10.998177,1.22562 h -21.24076 z" />
  </g>
</svg>
