<?xml version="1.0" encoding="UTF-8" standalone="no"?>
<!-- Created with Inkscape (http://www.inkscape.org/) -->

<svg
   xmlns:dc="http://purl.org/dc/elements/1.1/"
   xmlns:cc="http://creativecommons.org/ns#"
   xmlns:rdf="http://www.w3.org/1999/02/22-rdf-syntax-ns#"
   xmlns:svg="http://www.w3.org/2000/svg"
   xmlns="http://www.w3.org/2000/svg"
   xmlns:sodipodi="http://sodipodi.sourceforge.net/DTD/sodipodi-0.dtd"
   xmlns:inkscape="http://www.inkscape.org/namespaces/inkscape"
   width="102mm"
   height="102mm"
   viewBox="0 0 102 102"
   version="1.1"
   id="svg28998"
   inkscape:version="0.92.2 (5c3e80d, 2017-08-06)"
   sodipodi:docname="signos_vitales.svg">
  <defs
     id="defs28992" />
  <sodipodi:namedview
     id="base"
     pagecolor="#ffffff"
     bordercolor="#666666"
     borderopacity="1.0"
     inkscape:pageopacity="0.0"
     inkscape:pageshadow="2"
     inkscape:zoom="0.35"
     inkscape:cx="-110"
     inkscape:cy="560"
     inkscape:document-units="mm"
     inkscape:current-layer="layer1"
     showgrid="false"
     inkscape:window-width="1299"
     inkscape:window-height="713"
     inkscape:window-x="67"
     inkscape:window-y="27"
     inkscape:window-maximized="1" />
  <metadata
     id="metadata28995">
    <rdf:RDF>
      <cc:Work
         rdf:about="">
        <dc:format>image/svg+xml</dc:format>
        <dc:type
           rdf:resource="http://purl.org/dc/dcmitype/StillImage" />
        <dc:title></dc:title>
      </cc:Work>
    </rdf:RDF>
  </metadata>
  <g
     inkscape:label="Capa 1"
     inkscape:groupmode="layer"
     id="layer1"
     transform="translate(0,-195)">
    <path
       d="m 51.019421,202.37023 c -1.405553,0 -2.796763,0.46432 -3.872446,1.3892 l -1.219103,1.04713 c 0.07172,6.30879 -0.129081,12.62125 -0.01422,18.92875 1.00397,5.92968 -3.829417,12.11005 -10.642052,13.35843 v 40.85322 l 11.875499,10.22443 c 2.15136,1.84854 5.607874,1.84854 7.759236,0 l 12.363138,-10.64176 c -0.05736,-15.144 0.07172,-30.29296 0,-45.43696 -1.348186,-0.63718 -2.552945,-1.46943 -3.614285,-2.40791 -6.281966,-6.23343 -7.902656,-15.18475 -5.435764,-23.07286 l -3.313093,-2.85247 c -1.075679,-0.92488 -2.481237,-1.3892 -3.88679,-1.3892 v 0 m -14.069889,10.17629 -2.854134,2.45113 c -0.02886,2.57217 -0.04302,5.14187 -0.01423,7.71277 -0.02886,1.05455 2.065305,0.25693 2.954532,0.5038 0.01423,-3.55261 -0.05736,-7.11015 -0.08607,-10.6677 v 0 m 46.54107,15.82686 c -1.348185,1.48177 -2.983219,2.7586 -4.933785,3.72053 -0.05736,11.91613 -0.05736,23.8323 -0.04301,35.74843 l 21.527935,-18.53856 c 2.15135,-1.84977 2.15135,-4.8282 0,-6.67675 L 83.490822,228.37338 m -68.370193,2.95617 -13.1089477,11.29748 c -2.15135893,1.84978 -2.15135893,4.82698 0,6.67675 l 22.0012317,18.94606 c 0.01435,-10.39483 0.05736,-20.78843 0.01435,-31.18201 -3.743365,-0.71619 -7.013431,-2.88582 -8.906627,-5.73828 z"
       id="path1524"
       inkscape:connector-curvature="0"
       style="font-size:medium;font-family:'Times New Roman';overflow:visible;fill:#c1bfd0;fill-rule:evenodd;stroke:none;stroke-width:1.33080661;stroke-linejoin:miter;stroke-miterlimit:79.84031677;marker-start:none;marker-end:none;fill-opacity:1" />
    <path
       d="m 72.834203,195.70584 c -0.100377,0 -0.21515,0 -0.315528,0.0139 0,0 0,0 -0.01422,0 -5.407086,0.26778 -9.150451,4.20462 -11.000619,7.98937 v 0.0139 0 c -3.470859,6.98914 -3.155326,15.37858 1.219103,22.03683 0,0 0.01422,0.014 0.01422,0.014 1.491609,2.18441 3.700339,4.20832 6.540133,5.24928 v 62.71842 c 0,1.38426 1.305155,2.50055 2.911503,2.50055 h 1.405557 c 1.606348,0 2.897163,-1.11629 2.897163,-2.50055 v -62.69125 c 5.321026,-1.97943 8.160821,-6.82739 9.394267,-11.27529 0,-0.0139 0,-0.0139 0,-0.0175 1.792798,-6.96569 0.745806,-14.9452 -4.876413,-20.61553 0,-0.0139 0,-0.0139 -0.01423,-0.0175 -2.022279,-1.9251 -4.919442,-3.46615 -8.160824,-3.40689 z"
       id="path1526"
       inkscape:connector-curvature="0"
       style="font-size:medium;font-family:'Times New Roman';overflow:visible;fill:#c1bfd0;fill-rule:evenodd;stroke:none;stroke-width:1.33080661;stroke-linejoin:miter;stroke-miterlimit:79.84031677;marker-start:none;marker-end:none;fill-opacity:1" />
    <path
       d="m 17.816781,195.70461 c -1.807142,-0.0211 -2.739396,1.69789 -2.380837,3.07598 0.05736,9.35387 -0.100398,18.71265 0.08606,28.06282 0.530668,4.5652 5.234973,8.4129 10.527317,8.74386 v 58.13843 c 0,1.38549 1.290817,2.50051 2.897164,2.50051 h 1.405554 c 1.606348,0 2.911506,-1.11502 2.911506,-2.50051 v -58.13843 c 6.181571,-0.33603 11.230091,-5.47526 10.627713,-10.78874 -0.01423,-9.11184 0.04301,-18.22614 -0.02886,-27.33553 -0.229461,-1.93744 -3.671652,-2.40668 -4.56088,-0.59149 -0.588035,9.32054 -0.243812,19.6598 -0.243812,28.07891 H 32.0873 c -0.02886,-9.1736 0.04302,-18.34963 -0.04301,-27.52073 -0.272515,-2.03873 -3.944155,-2.33508 -4.646936,-0.36923 -0.329876,9.34149 -0.157743,19.34366 -0.157743,27.88996 h -6.970446 c -0.04303,-9.21556 0.100398,-18.44226 -0.07171,-27.65041 -0.229477,-0.93107 -1.276469,-1.61517 -2.380835,-1.5954 z"
       id="path1528"
       inkscape:connector-curvature="0"
       style="font-size:medium;font-family:'Times New Roman';overflow:visible;fill:#c1bfd0;fill-rule:evenodd;stroke:none;stroke-width:1.33080661;stroke-linejoin:miter;stroke-miterlimit:79.84031677;marker-start:none;marker-end:none;fill-opacity:1" />
  </g>
</svg>
