<?xml version="1.0" encoding="UTF-8" standalone="no"?>
<!-- Created with Inkscape (http://www.inkscape.org/) -->
<svg xmlns:rdf="http://www.w3.org/1999/02/22-rdf-syntax-ns#" xmlns="http://www.w3.org/2000/svg" height="361" width="361" version="1.1" xmlns:cc="http://creativecommons.org/ns#" xmlns:dc="http://purl.org/dc/elements/1.1/" viewBox="0 0 95.514581 95.514586">
 <metadata>
  <rdf:RDF>
   <cc:Work rdf:about="">
    <dc:format>image/svg+xml</dc:format>
    <dc:type rdf:resource="http://purl.org/dc/dcmitype/StillImage"/>
    <dc:title/>
   </cc:Work>
  </rdf:RDF>
 </metadata>
 <g transform="translate(0 -201.49)">
  <path d="m96.153 250.13c0 4.9086-0.73346 9.6247-2.1515 14.052-5.4765 17.228-20.732 30.221-39.362 32.579-2.0537 0.28874-4.1074 0.38498-6.2588 0.38498-2.3471 0-4.6941-0.19249-6.9434-0.48123-20.83-2.9836-37.308-19.201-40.34-39.702-0.34228-2.2137-0.48897-4.5236-0.48897-6.8335 0-25.987 21.417-47.016 47.772-47.016h0.34228c26.111 0.19249 47.283 20.982 47.43 46.728v0.28874z" class="st1" stroke-width=".48509" fill="#c1bfd0"/>
  <path opacity=".7" d="m93.953 264.18c-5.476 17.23-20.732 30.22-39.362 32.58l-7.3346-7.2185-1.418-1.3956c-0.09779-0.1925-0.14669-0.38499-0.19559-0.57748v-0.0481-0.0481c0-0.0962-0.0489-0.14437-0.0489-0.24062v-0.0962-0.1925-0.0962-0.33687-0.0962c0-0.0962 0-0.19249 0.0489-0.24062v-0.14437c0-0.0962 0.0489-0.19249 0.0489-0.24061 0-0.0481 0-0.0962 0.0489-0.14437 0.0489-0.14437 0.09779-0.24062 0.14669-0.38499 1.907-5.053 3.6673-16.795 0.63566-21.415-2.0537-3.1761-6.0143-6.9779-4.7919-12.512h0.24448 0.09779 0.0489 0.14669 0.09779 0.09779 0.09779 0.09779c0.09779 0 0.14669 0.0481 0.24448 0.0481h0.0489c0.0489 0 0.09779 0.0481 0.14669 0.0481h0.0489c0.19559 0.0481 0.39118 0.14437 0.58676 0.1925 0.48897 0.24061 0.92904 0.57748 1.2224 1.1068l1.5647 1.54v-0.96247c0.58676-0.76997 1.418-1.0106 2.396-1.0587l-5.7699-5.6786-2.1026-2.0693c-0.48897-0.72185-0.88015-1.54-1.1246-2.5505-0.14669-0.67372-0.29338-1.3474-0.39118-2.0212 0.24448-1.2031 0.48897-2.4062 0.58676-3.6092l-1.0757-1.0587c-0.0489 0.14437-0.0489 0.24061-0.09779 0.38498-0.0489-0.19249-0.0489-0.38498-0.09779-0.57748-0.24449-1.2031-0.58676-2.5024-1.2224-3.8017l-9.1926-9.0472c-0.0489 0-0.09779-0.0481-0.14669-0.0481-0.58676-0.33686-0.97794-0.76997-1.2224-1.2512-1.5647-3.4168 5.2809-8.2291 7.6279-6.1598 0.29338 0.14437 0.53787 0.38499 0.78235 0.62561 0.48897 0.52935 0.92904 1.0106 1.3691 1.4918l0.0489 0.0481 16.381 16.121 0.0489 0.0481c1.2713 1.1068 2.2982 1.973 3.1783 2.743 0.39118 0.33686 0.73346 0.6256 1.1246 0.96246l0.0489 0.0481c0.53787 0.48123 1.0757 0.96246 1.5158 1.4918l2.2493 2.2137c-1.3202-3.513-4.4007-6.4966-7.8724-9.9134 2.836 0.52936 6.5522 1.155 9.1926 2.8874l2.4937 2.4543z" class="st2" stroke-width=".48509" fill="#c1bfd0"/>
  <g fill="#fff" transform="matrix(.48897 0 0 .48123 -252.87 133.48)">
   <path d="m640 278.8c-1.8 2.3-3.5 4.8-4.7 7.4 1.3-1.9 3.6-4.5 5.6-6.5 1.3-1.3 2.6-2.4 3.3-3-0.6 0.9-1.3 2.4-2 4.3-3.2 9-6.8 27.2-8.8 39.3-1 5.5-11.7 7.4-18.2 4.6-0.5-0.2-1-0.4-1.4-0.7-1.3-0.7-2.3-1.7-2.9-2.9-0.2-0.4-0.3-0.8-0.5-1.2-0.4-1.4-0.3-2.9 0.4-4.8 3.9-10.5 7.5-34.9 1.3-44.5-4.2-6.6-12.3-14.5-9.8-26 0 0 2.6-0.1 4.8 1.1 0.8 0.5 1.6 1.1 2.1 2.1 0.1 0.1 0.1 0.2 0.2 0.3-0.3 15.5 7 15.8 10.9 26.5 3.3 8.8 2.5 20.7 1.5 29.8h0.1c2.3-12.6 3.9-26.9-3-37.6-1.5-2.3-3.1-4.4-4.3-6.5-1.7-2.9-2.2-6.1-2.3-9.4v-2c6.1-8 24.6 9.7 34.8-10.8 0 0 4.6-2.4 6.9-2 0.7 0.1 1.1 0.5 1.2 1.2v0.3c0.6 4.5-1.3 10.8-1.8 14.6-1.3 11.6-5 15.9-9.7 21.4-1.1 1.8-2.5 3.4-3.7 5z" class="st0"/>
   <path d="m652.6 227.6c-0.4 1.2-1 2.2-1.8 2.9-0.2 0.2-0.4 0.4-0.6 0.5-1.7 1.2-4 1.3-5.7 0.7-1.4 5.2-6.7 8-12.9 9.1-1.6 0.3-3.3 0.4-4.9 0.5-4.9 0.1-9.9-0.6-13.6-2-2.7-1-5.2-2.2-7.4-3.8-1.6-1.2-3.1-2.6-4.3-4.3-1-1.5-1.8-3.2-2.3-5.3-0.3-1.4-0.6-2.8-0.8-4.2 0.5-2.5 1-5 1.3-7.5l0.3-3.6v-1.5c0-3.6-0.6-7.1-1.8-10.4 0.5 2.9 0.6 5.9 0.2 8.8-0.1 1-0.3 1.9-0.5 2.9-0.1 0.6-0.3 1.1-0.4 1.7-0.1 0.3-0.1 0.5-0.2 0.8-0.1-0.4-0.1-0.8-0.2-1.2-0.5-2.6-1.2-5.2-2.5-7.9-2.8-6.2-8.1-12.6-18.8-18.8-0.1 0-0.2-0.1-0.3-0.1-1.2-0.7-2-1.6-2.5-2.6-2.8-6.1 7.8-15.9 14.7-13.2 0.3 0.1 0.6 0.3 0.9 0.4 0.6 0.3 1.1 0.8 1.6 1.3 1 1.1 2 2.2 2.9 3.2 8.5 9.3 12.8 13.3 25.7 26 3 3 5.5 5.4 7.8 7.5l0.1 0.1c3.7 3.3 6.5 5.5 8.8 7.6 1.1 1 2.2 2 3.1 3.1l0.1 0.1c1.1 1.2 2.1 2.6 3.1 4.2 0.9 1.5 1.9 3.4 2.8 5.5-0.1-1.2-0.4-2.3-0.7-3.4-0.2-0.6-0.4-1.1-0.6-1.7-2.7-7.3-9-13.5-16.1-20.6 5.8 1.1 13.4 2.4 18.8 6 2 1.3 3.8 3 5.1 5.1 0.6 1 1.1 2 1.4 3.2 1.2 3.6 1.2 7.4 0.2 10.9z" class="st0"/>
  </g>
 </g>
</svg>
