<?xml version="1.0" encoding="iso-8859-1"?>
<!-- Generator: Adobe Illustrator 19.0.0, SVG Export Plug-In . SVG Version: 6.00 Build 0)  -->
<svg version="1.1" id="Capa_1" xmlns="http://www.w3.org/2000/svg" xmlns:xlink="http://www.w3.org/1999/xlink" x="0px" y="0px"
	 viewBox="0 0 512 512" style="enable-background:new 0 0 512 512;" xml:space="preserve">
<g>
	<g>
		<polygon points="180,60 180,90 214.64,90 274.64,150 452,150 452,272 512,272 512,60 		"/>
	</g>
</g>
<g>
	<g>
		<polygon points="292.213,0 180,0 180,30 322.213,30 		"/>
	</g>
</g>
<g>
	<g>
		<polygon points="202.213,120 90,120 90,150 232.213,150 		"/>
	</g>
</g>
<g>
	<g>
		<polygon points="90,180 90,210 124.64,210 184.64,270 362,270 362,392 422,392 422,180 		"/>
	</g>
</g>
<g>
	<g>
		<polygon points="112.213,240 0,240 0,270 142.213,270 		"/>
	</g>
</g>
<g>
	<g>
		<rect y="300" width="332" height="212"/>
	</g>
</g>
<g>
</g>
<g>
</g>
<g>
</g>
<g>
</g>
<g>
</g>
<g>
</g>
<g>
</g>
<g>
</g>
<g>
</g>
<g>
</g>
<g>
</g>
<g>
</g>
<g>
</g>
<g>
</g>
<g>
</g>
</svg>
