<?xml version="1.0" encoding="iso-8859-1"?>
<!-- Generator: Adobe Illustrator 19.0.0, SVG Export Plug-In . SVG Version: 6.00 Build 0)  -->
<svg version="1.1" id="Capa_1" xmlns="http://www.w3.org/2000/svg" xmlns:xlink="http://www.w3.org/1999/xlink" x="0px" y="0px"
	 viewBox="0 0 512 512" style="enable-background:new 0 0 512 512;" xml:space="preserve">
<g>
	<g>
		<path d="M352.213,60l-60-60H180v120H90v120H0v272h332V392h90V272h90V60H352.213z M210,30h69.787l30,30H210V30z M120,150h69.787
			l30,30H120V150z M30,270h69.787l30,30H30V270z M302,482H30V330h272V482z M392,362h-60v-62H172.213L120,247.787V210h272V362z
			 M482,242h-60v-62H262.213L210,127.787V90h272V242z"/>
	</g>
</g>
<g>
</g>
<g>
</g>
<g>
</g>
<g>
</g>
<g>
</g>
<g>
</g>
<g>
</g>
<g>
</g>
<g>
</g>
<g>
</g>
<g>
</g>
<g>
</g>
<g>
</g>
<g>
</g>
<g>
</g>
</svg>
