<?xml version="1.0" encoding="utf-8"?>
<!-- Generator: Adobe Illustrator 16.0.0, SVG Export Plug-In . SVG Version: 6.00 Build 0)  -->
<!DOCTYPE svg PUBLIC "-//W3C//DTD SVG 1.1//EN" "http://www.w3.org/Graphics/SVG/1.1/DTD/svg11.dtd">
<svg version="1.1" id="Capa_1" xmlns="http://www.w3.org/2000/svg" xmlns:xlink="http://www.w3.org/1999/xlink" x="0px" y="0px"
	 width="612px" height="792px" viewBox="0 0 612 792" enable-background="new 0 0 612 792" xml:space="preserve">
<g>
	<path fill="#C1BFD0" d="M316.2,253.2H173.4V396h142.8V253.2z M295.8,375.6h-102v-102h102V375.6z"/>
	<path fill="#C1BFD0" d="M530.4,253.2H367.2c-5.641,0-10.2,4.559-10.2,10.2s4.56,10.2,10.2,10.2h163.2
		c5.641,0,10.199-4.56,10.199-10.2S536.041,253.2,530.4,253.2z"/>
	<path fill="#C1BFD0" d="M530.4,314.4H367.2c-5.641,0-10.2,4.56-10.2,10.2s4.56,10.2,10.2,10.2h163.2
		c5.641,0,10.199-4.559,10.199-10.2S536.041,314.4,530.4,314.4z"/>
	<path fill="#C1BFD0" d="M530.4,375.6H367.2c-5.641,0-10.2,4.559-10.2,10.2s4.56,10.2,10.2,10.2h163.2
		c5.641,0,10.199-4.56,10.199-10.2S536.041,375.6,530.4,375.6z"/>
	<path fill="#C1BFD0" d="M530.4,436.8H193.8c-5.641,0-10.2,4.56-10.2,10.2s4.559,10.2,10.2,10.2H530.4
		c5.641,0,10.199-4.56,10.199-10.2S536.041,436.8,530.4,436.8z"/>
	<path fill="#C1BFD0" d="M346.8,498h-153c-5.641,0-10.2,4.56-10.2,10.2s4.559,10.2,10.2,10.2h153c5.641,0,10.2-4.56,10.2-10.2
		S352.44,498,346.8,498z"/>
	<path fill="#C1BFD0" d="M346.8,559.2h-153c-5.641,0-10.2,4.56-10.2,10.2s4.559,10.199,10.2,10.199h153
		c5.641,0,10.2-4.559,10.2-10.199S352.44,559.2,346.8,559.2z"/>
	<path fill="#C1BFD0" d="M346.8,620.4h-153c-5.641,0-10.2,4.559-10.2,10.199s4.559,10.2,10.2,10.2h153c5.641,0,10.2-4.56,10.2-10.2
		S352.44,620.4,346.8,620.4z"/>
	<path fill="#C1BFD0" d="M397.8,640.8h142.8V498H397.8V640.8z M418.2,518.4h102v102h-102V518.4z"/>
	<path fill="#C1BFD0" d="M601.8,222.6c0-0.173-0.092-0.316-0.102-0.49V90H112.2v306h-102v244.8c0,33.752,27.448,61.2,61.2,61.2
		h469.2c33.691,0,61.099-27.418,61.099-61.098V223.09C601.708,222.916,601.8,222.773,601.8,222.6z M581.298,110.4v102H132.6v-102
		H581.298z M30.6,640.8V416.4h81.6V640.8c0,22.501-18.299,40.8-40.8,40.8C48.899,681.6,30.6,663.301,30.6,640.8z M540.6,681.6
		H116.984c0.163-0.184,0.275-0.397,0.428-0.581c2.081-2.377,3.978-4.916,5.671-7.599c0.275-0.429,0.53-0.857,0.795-1.306
		c1.652-2.754,3.111-5.631,4.314-8.649c0.164-0.419,0.306-0.837,0.459-1.255c1.173-3.121,2.131-6.345,2.784-9.68
		c0.062-0.307,0.082-0.622,0.143-0.918c0.632-3.509,1.02-7.12,1.02-10.813V396V232.8h448.698v408.103
		C581.298,663.342,563.04,681.6,540.6,681.6z"/>
	<path fill="#C1BFD0" d="M479.4,130.8H234.6V192h244.8V130.8z M459,171.6H255v-20.4h204V171.6z"/>
</g>
</svg>
