<?xml version="1.0" encoding="utf-8"?>
<!-- Generator: Adobe Illustrator 16.0.0, SVG Export Plug-In . SVG Version: 6.00 Build 0)  -->
<!DOCTYPE svg PUBLIC "-//W3C//DTD SVG 1.1//EN" "http://www.w3.org/Graphics/SVG/1.1/DTD/svg11.dtd">
<svg version="1.1" id="Layer_1" xmlns="http://www.w3.org/2000/svg" xmlns:xlink="http://www.w3.org/1999/xlink" x="0px" y="0px"
	 width="612px" height="792px" viewBox="0 0 612 792" enable-background="new 0 0 612 792" xml:space="preserve">
<g>
	<g>
		<g>
			<path fill="#C1BFD0" d="M523.283,126.62h-80.191v-21.285C443.093,96.866,436.227,90,427.758,90H184.242
				c-8.469,0-15.334,6.866-15.334,15.334v21.285h-80.19c-8.469,0-15.334,6.866-15.334,15.334c0,22.154,0,525.222,0,544.711
				c0,8.469,6.866,15.335,15.334,15.335h434.567c8.469,0,15.334-6.866,15.334-15.335c0-19.527,0-522.478,0-544.711
				C538.618,133.485,531.753,126.62,523.283,126.62z M199.577,120.669h212.847c0,15.165,0,103.103,0,115.808H199.577
				C199.577,224.192,199.577,135.926,199.577,120.669z M104.052,157.289h64.855v42.57h-64.855V157.289z M507.948,671.331H104.052
				V230.528h64.855v21.285c0,8.469,6.866,15.334,15.334,15.334h243.516c8.469,0,15.335-6.866,15.335-15.334v-21.285h64.855V671.331
				L507.948,671.331z M507.948,199.859h-64.855v-42.57h64.855V199.859z"/>
			<path fill="#C1BFD0" d="M249.104,317.281h-70.918c-8.469,0-15.335,6.866-15.335,15.335v70.918
				c0,8.469,6.866,15.335,15.335,15.335h70.918c8.469,0,15.334-6.866,15.334-15.335v-70.918
				C264.439,324.147,257.573,317.281,249.104,317.281z M233.77,388.199h-40.249v-40.249h40.249V388.199L233.77,388.199z"/>
			<path fill="#C1BFD0" d="M314.771,388.199c-8.469,0-15.335,6.866-15.335,15.335s6.866,15.335,15.335,15.335h119.042
				c8.469,0,15.335-6.866,15.335-15.335s-6.866-15.335-15.335-15.335H314.771z"/>
			<path fill="#C1BFD0" d="M249.104,482.991h-70.918c-8.469,0-15.335,6.866-15.335,15.335v70.918
				c0,8.469,6.866,15.334,15.335,15.334h70.918c8.469,0,15.334-6.865,15.334-15.334v-70.918
				C264.439,489.854,257.573,482.991,249.104,482.991z M233.77,553.907h-40.249v-40.249h40.249V553.907L233.77,553.907z"/>
			<path fill="#C1BFD0" d="M433.814,553.907H314.772c-8.469,0-15.335,6.865-15.335,15.334s6.866,15.335,15.335,15.335h119.042
				c8.469,0,15.335-6.866,15.335-15.335S442.283,553.907,433.814,553.907z"/>
			<path fill="#C1BFD0" d="M328.37,160.867h-7.035v-7.036c0-8.469-6.866-15.335-15.335-15.335s-15.334,6.866-15.334,15.335v7.036
				h-7.036c-8.469,0-15.335,6.866-15.335,15.334s6.866,15.334,15.335,15.334h7.036v7.036c0,8.469,6.866,15.335,15.334,15.335
				s15.335-6.866,15.335-15.335v-7.036h7.035c8.469,0,15.335-6.866,15.335-15.334S336.839,160.867,328.37,160.867z"/>
		</g>
	</g>
</g>
</svg>
