<?xml version="1.0" encoding="UTF-8" standalone="no"?>
<!-- Created with Inkscape (http://www.inkscape.org/) -->

<svg
   xmlns:dc="http://purl.org/dc/elements/1.1/"
   xmlns:cc="http://creativecommons.org/ns#"
   xmlns:rdf="http://www.w3.org/1999/02/22-rdf-syntax-ns#"
   xmlns:svg="http://www.w3.org/2000/svg"
   xmlns="http://www.w3.org/2000/svg"
   xmlns:sodipodi="http://sodipodi.sourceforge.net/DTD/sodipodi-0.dtd"
   xmlns:inkscape="http://www.inkscape.org/namespaces/inkscape"
   width="102mm"
   height="102mm"
   viewBox="0 0 102 102"
   version="1.1"
   id="svg28998"
   inkscape:version="0.92.2 (5c3e80d, 2017-08-06)"
   sodipodi:docname="cardiologia.svg">
  <defs
     id="defs28992" />
  <sodipodi:namedview
     id="base"
     pagecolor="#ffffff"
     bordercolor="#666666"
     borderopacity="1.0"
     inkscape:pageopacity="0.0"
     inkscape:pageshadow="2"
     inkscape:zoom="0.35"
     inkscape:cx="-110"
     inkscape:cy="560"
     inkscape:document-units="mm"
     inkscape:current-layer="layer1"
     showgrid="false"
     inkscape:window-width="1299"
     inkscape:window-height="713"
     inkscape:window-x="67"
     inkscape:window-y="27"
     inkscape:window-maximized="1" />
  <metadata
     id="metadata28995">
    <rdf:RDF>
      <cc:Work
         rdf:about="">
        <dc:format>image/svg+xml</dc:format>
        <dc:type
           rdf:resource="http://purl.org/dc/dcmitype/StillImage" />
        <dc:title></dc:title>
      </cc:Work>
    </rdf:RDF>
  </metadata>
  <g
     inkscape:label="Capa 1"
     inkscape:groupmode="layer"
     id="layer1"
     transform="translate(0,-195)">
    <path
       d="m 12.501289,217.0825 c -8.3101437,3.88028 -10.8504189,13.53527 -11.65197133,20.36958 -0.35540065,6.17608 3.02214383,11.84336 7.13745443,17.14878 8.1682489,10.53051 12.6016959,24.19298 27.3585169,30.21471 12.319409,4.86082 25.507428,8.43606 38.938746,10.79238 8.168249,1.53755 17.980093,0.46311 23.079431,-5.3721 4.820144,-5.0609 2.571483,-11.94831 2.679074,-17.80949 -1.327049,-11.71615 -1.370723,-23.678 -5.300464,-35.08791 -1.992941,-4.69286 -6.295411,-9.39685 -11.801691,-11.50621 -0.02652,-0.007 -0.05305,-0.014 -0.08089,-0.021 -0.151177,1.12628 -0.525542,2.22542 -1.252213,3.26527 -2.757095,4.31126 -10.929986,5.12759 -15.333816,1.92284 -0.260362,-0.14213 -0.494334,-0.30492 -0.70952,-0.48289 -2.588634,3.03557 -8.109015,4.03465 -12.25708,2.49589 -3.516479,-1.12998 -5.506281,-4.06428 -5.854034,-6.96029 -0.05924,-1.39181 -0.146757,-2.81079 -0.328879,-4.22112 -1.057316,0.0888 -2.114589,0.20129 -3.176548,0.34448 -0.346118,2.37981 -1.493921,4.73115 -4.010856,6.12545 -4.15116,2.60333 -10.800513,1.16458 -13.347065,-2.3378 -0.378829,0.22124 -0.785949,0.4162 -1.221049,0.58783 -5.102388,2.2847 -12.218049,-0.64833 -13.15995,-5.1251 -0.0221,-1.44616 0.132612,-2.89475 0.293073,-4.34463 z"
       id="path1730"
       inkscape:connector-curvature="0"
       style="font-size:medium;font-family:'Times New Roman';overflow:visible;fill:#c1bfd0;fill-rule:evenodd;stroke:none;stroke-width:1.38774526;stroke-linejoin:miter;stroke-miterlimit:79.84031677;marker-start:none;marker-end:none;fill-opacity:1" />
    <path
       d="m 21.781403,202.52715 c -0.213506,-0.007 -0.427453,-0.007 -0.640915,0.004 -3.518025,0.15929 -6.204924,2.54649 -6.003752,5.33136 0.01326,0.16664 0.03536,0.33362 0.06852,0.49769 0.678356,3.76789 0.523995,7.3283 -0.205991,10.69854 -0.681449,2.73669 1.567255,5.3931 5.024456,5.93276 2.058451,0.32103 4.185506,-0.18027 5.687251,-1.34114 -0.605065,-4.51878 0.885717,-9.06591 2.552741,-13.37103 -0.09062,-1.10283 -0.232513,-2.21675 -0.434968,-3.34429 -0.391206,-2.43905 -2.94576,-4.30138 -6.047471,-4.40885 z"
       id="path1732"
       inkscape:connector-curvature="0"
       style="font-size:medium;font-family:'Times New Roman';overflow:visible;fill:#c1bfd0;fill-rule:evenodd;stroke:none;stroke-width:1.38774526;stroke-linejoin:miter;stroke-miterlimit:79.84031677;marker-start:none;marker-end:none;fill-opacity:1" />
    <path
       d="m 37.656322,205.26509 c -2.557427,0.0904 -4.799899,1.38315 -5.691892,3.28378 -2.250209,4.58298 -3.390188,9.14989 -3.719198,13.51922 -0.207317,2.78607 2.474809,5.17697 5.992834,5.34245 3.516522,0.16418 6.535571,-1.95987 6.744524,-4.74474 v 0 c 0.255941,-3.41346 1.129016,-6.90965 2.870877,-10.45649 1.323957,-2.58477 -0.249311,-5.53142 -3.513383,-6.5799 -0.849867,-0.27307 -1.766793,-0.39767 -2.683762,-0.36432 z"
       id="path1734"
       inkscape:connector-curvature="0"
       style="font-size:medium;font-family:'Times New Roman';overflow:visible;fill:#c1bfd0;fill-rule:evenodd;stroke:none;stroke-width:1.38774526;stroke-linejoin:miter;stroke-miterlimit:79.84031677;marker-start:none;marker-end:none;fill-opacity:1" />
    <path
       d="m 42.925624,195.70642 c -3.962497,-0.007 -7.181128,2.53293 -7.188952,5.671 -0.0015,0.61006 0.121562,1.21641 0.363357,1.79563 0.612846,-0.10253 1.249119,-0.15192 1.899361,-0.13826 4.83734,-0.0962 9.099231,3.4011 9.149138,7.18132 -0.130845,0.72987 -0.330647,1.44863 -0.561393,2.1612 3.165631,4.40513 3.242059,9.27583 3.748859,13.9576 0.333741,3.1282 3.806545,5.4487 7.754985,5.18444 3.950032,-0.26431 6.880186,-3.01334 6.546446,-6.14152 0,-0.004 0,-0.0109 -0.0015,-0.014 -0.327552,-3.0294 -0.684588,-7.84822 -2.802272,-12.98078 3.142245,-1.54986 6.630654,-2.83794 10.538559,-3.75922 3.38864,-0.75829 5.359743,-3.55056 4.400692,-6.23537 -0.798414,-2.23282 -3.415118,-3.74814 -6.343726,-3.6728 -0.575448,0.014 -1.146167,0.0914 -1.695093,0.2272 -4.679885,1.10159 -8.923034,2.63172 -12.742088,4.43846 -2.29702,-2.40694 -5.238095,-4.68793 -9.018117,-6.6787 -1.191388,-0.64791 -2.602691,-0.99494 -4.048253,-0.99619 z"
       id="path1736"
       inkscape:connector-curvature="0"
       style="font-size:medium;font-family:'Times New Roman';overflow:visible;fill:#c1bfd0;fill-rule:evenodd;stroke:none;stroke-width:1.38774526;stroke-linejoin:miter;stroke-miterlimit:79.84031677;marker-start:none;marker-end:none;fill-opacity:1" />
    <path
       d="m 75.565864,209.77766 c -3.2467,1.52024 -7.196731,2.03401 -10.443432,3.59499 0.954366,2.69842 1.517305,5.47955 1.899361,8.257 0.456893,2.14762 0.73918,4.47432 -0.04995,6.57499 2.161358,2.6305 6.605723,3.37394 9.927261,1.66228 2.183196,-1.12507 3.42449,-3.09732 3.245154,-5.15479 -0.333741,-4.42982 -1.486097,-9.06463 -3.769104,-13.71185 -0.205991,-0.43224 -0.477184,-0.84224 -0.809333,-1.22262 z"
       id="path1738"
       inkscape:connector-curvature="0"
       style="font-size:medium;font-family:'Times New Roman';overflow:visible;fill:#c1bfd0;fill-rule:evenodd;stroke:none;stroke-width:1.38774526;stroke-linejoin:miter;stroke-miterlimit:79.84031677;marker-start:none;marker-end:none;fill-opacity:1" />
  </g>
</svg>
