<?xml version="1.0" encoding="UTF-8" standalone="no"?>
<!-- Created with Inkscape (http://www.inkscape.org/) -->

<svg
   xmlns:dc="http://purl.org/dc/elements/1.1/"
   xmlns:cc="http://creativecommons.org/ns#"
   xmlns:rdf="http://www.w3.org/1999/02/22-rdf-syntax-ns#"
   xmlns:svg="http://www.w3.org/2000/svg"
   xmlns="http://www.w3.org/2000/svg"
   xmlns:sodipodi="http://sodipodi.sourceforge.net/DTD/sodipodi-0.dtd"
   xmlns:inkscape="http://www.inkscape.org/namespaces/inkscape"
   width="102mm"
   height="102mm"
   viewBox="0 0 102 102"
   version="1.1"
   id="svg28998"
   inkscape:version="0.92.2 (5c3e80d, 2017-08-06)"
   sodipodi:docname="citas.svg">
  <defs
     id="defs28992" />
  <sodipodi:namedview
     id="base"
     pagecolor="#ffffff"
     bordercolor="#666666"
     borderopacity="1.0"
     inkscape:pageopacity="0.0"
     inkscape:pageshadow="2"
     inkscape:zoom="0.35"
     inkscape:cx="-110"
     inkscape:cy="560"
     inkscape:document-units="mm"
     inkscape:current-layer="layer1"
     showgrid="false"
     inkscape:window-width="1299"
     inkscape:window-height="713"
     inkscape:window-x="67"
     inkscape:window-y="27"
     inkscape:window-maximized="1" />
  <metadata
     id="metadata28995">
    <rdf:RDF>
      <cc:Work
         rdf:about="">
        <dc:format>image/svg+xml</dc:format>
        <dc:type
           rdf:resource="http://purl.org/dc/dcmitype/StillImage" />
        <dc:title></dc:title>
      </cc:Work>
    </rdf:RDF>
  </metadata>
  <g
     inkscape:label="Capa 1"
     inkscape:groupmode="layer"
     id="layer1"
     transform="translate(0,-195)">
    <path
       d="m 58.597888,245.66332 c -0.872619,0 -1.574774,0.80571 -1.574774,1.81033 v 47.11987 c 0,1.00314 0.700903,1.81027 1.574774,1.81027 h 44.138502 c 0.87386,0 1.58106,-0.80713 1.58106,-1.81027 v -47.11987 c 0,-1.00462 -0.7072,-1.81033 -1.58106,-1.81033 h -3.96783 c 0.01432,1.64337 0.207264,3.32012 -0.3599,4.85892 -0.933224,2.75099 -4.541148,3.2315 -6.166429,1.04231 -1.233773,-1.60415 -0.973639,-3.89639 -0.931971,-5.90123 H 70.044202 c 0.0072,1.68256 0.218361,3.40719 -0.402857,4.96779 -0.991321,2.65376 -4.505779,3.08927 -6.110836,0.95526 -1.24895,-1.59836 -0.995115,-3.90805 -0.950907,-5.92305 h -3.981714 v 0 m 3.15581,10.60917 h 37.833177 c 0.873875,0 1.574735,0.80569 1.574735,1.80883 v 32.88435 c 0,1.00312 -0.70086,1.81029 -1.574735,1.81029 H 61.753698 c -0.872618,0 -1.581074,-0.80717 -1.581074,-1.81029 v -32.88435 c 0,-1.00314 0.707203,-1.80883 1.581074,-1.80883 z"
       id="path2640"
       inkscape:connector-curvature="0"
       style="font-size:medium;font-family:'Times New Roman';overflow:visible;fill:#c1bfd0;fill-rule:evenodd;stroke:none;stroke-width:1.35398519;stroke-linejoin:miter;stroke-miterlimit:79.84031677;marker-start:none;marker-end:none;fill-opacity:1" />
    <path
       d="m 66.306192,241.48966 c -1.309553,0 -2.365273,1.21219 -2.365273,2.71906 v 4.45243 c 0,1.50543 1.054466,2.71761 2.365273,2.71761 1.309555,0 2.36531,-1.21218 2.36531,-2.71761 v -4.45243 c 0,-1.50687 -1.055755,-2.71906 -2.36531,-2.71906 m 28.725648,0 c -1.309555,0 -2.364021,1.21219 -2.364021,2.71906 v 4.45243 c 0,1.50543 1.054466,2.71761 2.364021,2.71761 1.310807,0 2.365273,-1.21218 2.365273,-2.71761 v -4.45243 c 0,-1.50687 -1.054466,-2.71906 -2.365273,-2.71906 z"
       id="path2642"
       inkscape:connector-curvature="0"
       style="font-size:medium;font-family:'Times New Roman';overflow:visible;fill:#c1bfd0;fill-rule:evenodd;stroke:none;stroke-width:1.35398519;stroke-linejoin:miter;stroke-miterlimit:79.84031677;marker-start:none;marker-end:none;fill-opacity:1" />
    <path
       d="m 69.767636,259.88871 v 6.69534 c 0,0.61554 -0.43443,1.11493 -0.969878,1.11493 h -5.824176 c -0.536701,0 -0.971096,-0.49939 -0.971096,-1.11493 v -6.69534 c 0,-0.61553 0.434395,-1.11634 0.971096,-1.11634 h 5.824176 c 0.535448,0 0.969878,0.50081 0.969878,1.11634 z"
       id="path2644"
       inkscape:connector-curvature="0"
       style="font-size:medium;font-family:'Times New Roman';overflow:visible;fill:#c1bfd0;fill-rule:evenodd;stroke:none;stroke-width:1.35398519;stroke-linejoin:miter;stroke-miterlimit:79.84031677;marker-start:none;marker-end:none;fill-opacity:1" />
    <path
       d="m 88.508051,267.69898 h -5.824175 c -0.53545,0 -0.969844,-0.49939 -0.969844,-1.11493 v -6.69534 c 0,-0.61553 0.434394,-1.11634 0.969844,-1.11634 h 5.824175 c 0.536701,0 0.971132,0.50081 0.971132,1.11634 v 6.69534 c 0,0.61554 -0.434431,1.11493 -0.971132,1.11493 z"
       id="path2646"
       inkscape:connector-curvature="0"
       style="font-size:medium;font-family:'Times New Roman';overflow:visible;fill:#c1bfd0;fill-rule:evenodd;stroke:none;stroke-width:1.35398519;stroke-linejoin:miter;stroke-miterlimit:79.84031677;marker-start:none;marker-end:none;fill-opacity:1" />
    <path
       d="m 78.652904,267.69898 h -5.824176 c -0.535448,0 -0.969843,-0.49939 -0.969843,-1.11493 v -6.69534 c 0,-0.61553 0.434395,-1.11634 0.969843,-1.11634 h 5.824176 c 0.536702,0 0.971132,0.50081 0.971132,1.11634 v 6.69534 c 0,0.61554 -0.43443,1.11493 -0.971132,1.11493 z"
       id="path2648"
       inkscape:connector-curvature="0"
       style="font-size:medium;font-family:'Times New Roman';overflow:visible;fill:#c1bfd0;fill-rule:evenodd;stroke:none;stroke-width:1.35398519;stroke-linejoin:miter;stroke-miterlimit:79.84031677;marker-start:none;marker-end:none;fill-opacity:1" />
    <path
       d="m 98.363197,267.69898 h -5.824175 c -0.535449,0 -0.969879,-0.49939 -0.969879,-1.11493 v -6.69534 c 0,-0.61553 0.43443,-1.11634 0.969879,-1.11634 h 5.824175 c 0.536701,0 0.971096,0.50081 0.971096,1.11634 v 6.69534 c 0,0.61554 -0.434395,1.11493 -0.971096,1.11493 z"
       id="path2650"
       inkscape:connector-curvature="0"
       style="font-size:medium;font-family:'Times New Roman';overflow:visible;fill:#c1bfd0;fill-rule:evenodd;stroke:none;stroke-width:1.35398519;stroke-linejoin:miter;stroke-miterlimit:79.84031677;marker-start:none;marker-end:none;fill-opacity:1" />
    <path
       d="m 69.767636,271.17582 v 6.69536 c 0,0.61696 -0.43443,1.11636 -0.969878,1.11636 h -5.824176 c -0.536701,0 -0.971096,-0.4994 -0.971096,-1.11636 v -6.69536 c 0,-0.61553 0.434395,-1.11489 0.971096,-1.11489 h 5.824176 c 0.535448,0 0.969878,0.49936 0.969878,1.11489 z"
       id="path2652"
       inkscape:connector-curvature="0"
       style="font-size:medium;font-family:'Times New Roman';overflow:visible;fill:#c1bfd0;fill-rule:evenodd;stroke:none;stroke-width:1.35398519;stroke-linejoin:miter;stroke-miterlimit:79.84031677;marker-start:none;marker-end:none;fill-opacity:1" />
    <path
       d="m 88.508051,278.98754 h -5.824175 c -0.53545,0 -0.969844,-0.4994 -0.969844,-1.11636 v -6.69536 c 0,-0.61553 0.434394,-1.11489 0.969844,-1.11489 h 5.824175 c 0.536701,0 0.971132,0.49936 0.971132,1.11489 v 6.69536 c 0,0.61696 -0.434431,1.11636 -0.971132,1.11636 z"
       id="path2654"
       inkscape:connector-curvature="0"
       style="font-size:medium;font-family:'Times New Roman';overflow:visible;fill:#c1bfd0;fill-rule:evenodd;stroke:none;stroke-width:1.35398519;stroke-linejoin:miter;stroke-miterlimit:79.84031677;marker-start:none;marker-end:none;fill-opacity:1" />
    <path
       d="m 78.652904,278.98754 h -5.824176 c -0.535448,0 -0.969843,-0.4994 -0.969843,-1.11636 v -6.69536 c 0,-0.61553 0.434395,-1.11489 0.969843,-1.11489 h 5.824176 c 0.536702,0 0.971132,0.49936 0.971132,1.11489 v 6.69536 c 0,0.61696 -0.43443,1.11636 -0.971132,1.11636 z"
       id="path2656"
       inkscape:connector-curvature="0"
       style="font-size:medium;font-family:'Times New Roman';overflow:visible;fill:#c1bfd0;fill-rule:evenodd;stroke:none;stroke-width:1.35398519;stroke-linejoin:miter;stroke-miterlimit:79.84031677;marker-start:none;marker-end:none;fill-opacity:1" />
    <path
       d="m 98.363197,278.98754 h -5.824175 c -0.535449,0 -0.969879,-0.4994 -0.969879,-1.11636 v -6.69536 c 0,-0.61553 0.43443,-1.11489 0.969879,-1.11489 h 5.824175 c 0.536701,0 0.971096,0.49936 0.971096,1.11489 v 6.69536 c 0,0.61696 -0.434395,1.11636 -0.971096,1.11636 z"
       id="path2658"
       inkscape:connector-curvature="0"
       style="font-size:medium;font-family:'Times New Roman';overflow:visible;fill:#c1bfd0;fill-rule:evenodd;stroke:none;stroke-width:1.35398519;stroke-linejoin:miter;stroke-miterlimit:79.84031677;marker-start:none;marker-end:none;fill-opacity:1" />
    <path
       d="m 69.767636,282.46297 v 6.69532 c 0,0.61553 -0.43443,1.11634 -0.969878,1.11634 h -5.824176 c -0.536701,0 -0.971096,-0.50081 -0.971096,-1.11634 v -6.69532 c 0,-0.61555 0.434395,-1.1164 0.971096,-1.1164 h 5.824176 c 0.535448,0 0.969878,0.50085 0.969878,1.1164 z"
       id="path2660"
       inkscape:connector-curvature="0"
       style="font-size:medium;font-family:'Times New Roman';overflow:visible;fill:#c1bfd0;fill-rule:evenodd;stroke:none;stroke-width:1.35398519;stroke-linejoin:miter;stroke-miterlimit:79.84031677;marker-start:none;marker-end:none;fill-opacity:1" />
    <path
       d="m 88.508051,290.27463 h -5.824175 c -0.53545,0 -0.969844,-0.49936 -0.969844,-1.11634 v -6.69532 c 0,-0.61555 0.434394,-1.11496 0.969844,-1.11496 h 5.824175 c 0.536701,0 0.971132,0.49941 0.971132,1.11496 v 6.69532 c 0,0.61698 -0.434431,1.11634 -0.971132,1.11634 z"
       id="path2662"
       inkscape:connector-curvature="0"
       style="font-size:medium;font-family:'Times New Roman';overflow:visible;fill:#c1bfd0;fill-rule:evenodd;stroke:none;stroke-width:1.35398519;stroke-linejoin:miter;stroke-miterlimit:79.84031677;marker-start:none;marker-end:none;fill-opacity:1" />
    <path
       d="m 78.652904,290.27463 h -5.824176 c -0.535448,0 -0.969843,-0.49936 -0.969843,-1.11634 v -6.69532 c 0,-0.61555 0.434395,-1.11496 0.969843,-1.11496 h 5.824176 c 0.536702,0 0.971132,0.49941 0.971132,1.11496 v 6.69532 c 0,0.61698 -0.43443,1.11634 -0.971132,1.11634 z"
       id="path2664"
       inkscape:connector-curvature="0"
       style="font-size:medium;font-family:'Times New Roman';overflow:visible;fill:#c1bfd0;fill-rule:evenodd;stroke:none;stroke-width:1.35398519;stroke-linejoin:miter;stroke-miterlimit:79.84031677;marker-start:none;marker-end:none;fill-opacity:1" />
    <path
       d="m 98.363197,290.27463 h -5.824175 c -0.535449,0 -0.969879,-0.49936 -0.969879,-1.11634 v -6.69532 c 0,-0.61555 0.43443,-1.11496 0.969879,-1.11496 h 5.824175 c 0.536701,0 0.971096,0.49941 0.971096,1.11496 v 6.69532 c 0,0.61698 -0.434395,1.11634 -0.971096,1.11634 z"
       id="path2666"
       inkscape:connector-curvature="0"
       style="font-size:medium;font-family:'Times New Roman';overflow:visible;fill:#c1bfd0;fill-rule:evenodd;stroke:none;stroke-width:1.35398519;stroke-linejoin:miter;stroke-miterlimit:79.84031677;marker-start:none;marker-end:none;fill-opacity:1" />
    <path
       d="m 40.88162,195.5442 c -16.786839,0 -16.578467,16.83991 -16.578467,16.83991 l -0.108464,8.9528 c -1.37141,-0.0248 -1.695981,1.53736 -1.695981,4.65274 0,4.67015 2.477676,9.561 4.729331,12.08554 0.762723,3.66997 2.221299,6.90147 4.182499,9.36504 -0.06801,0.0493 -0.143903,0.093 -0.212276,0.14074 -6.689204,4.69051 -14.662728,7.86541 -19.873168,11.04179 -1.437134,0.87536 -2.9676625,2.41127 -4.2090242,4.36529 -0.84484,1.34577 -1.5836144,2.7844 -2.2162871,4.27679 -0.025057,0.0535 -0.047969,0.1102 -0.070877,0.16254 -0.086986,0.2074 -0.1678871,0.41954 -0.2512936,0.62858 -1.2577565,3.09651 -2.108933,6.40353 -2.6014253,9.71929 -0.010739,0.0625 -0.017898,0.12465 -0.025057,0.18599 -0.021479,0.15515 -0.049041,0.30905 -0.07052,0.46456 -0.088418,0.57487 -0.1728985,1.14252 -0.2437762,1.70722 -0.060497,0.46457 -0.1403235,1.46479 -0.1084643,1.94966 -0.00358,0.0289 -0.00358,0.058 -0.00716,0.0885 -0.1857853,3.0254 4.7545673,4.0111 4.7545673,4.0111 1.8500508,0.62858 5.2546474,1.31961 9.3815544,1.95692 7.362328,1.39656 14.902675,1.87272 22.309212,2.13546 0.71726,0.0247 1.467383,0.0411 2.249078,0.0436 h 0.14784 c 0.388969,0 0.786743,0 1.188347,0 0.781695,0 1.536864,-0.0207 2.255413,-0.0436 3.452566,-0.12174 6.935452,-0.29011 10.415833,-0.57632 -0.233754,-12.34688 -0.0072,-24.7097 -0.04546,-37.05803 0,-0.88265 -0.06049,-1.8306 -0.0895,-2.7844 -1.197152,-0.72002 -2.379162,-1.47493 -3.520795,-2.27628 -0.06944,-0.0477 -0.143902,-0.0915 -0.212274,-0.13947 1.961199,-2.46357 3.419775,-5.69513 4.182498,-9.3665 2.251655,-2.52309 4.735631,-7.41538 4.735631,-12.08409 0,-3.1154 -0.337206,-4.67457 -1.708618,-4.6528 l -0.09737,-8.95273 c 0,0 0.203326,-16.84138 -16.583478,-16.84138 z"
       id="path2668"
       inkscape:connector-curvature="0"
       style="font-size:medium;font-family:'Times New Roman';overflow:visible;fill:#c1bfd0;fill-rule:evenodd;stroke:none;stroke-width:1.35398519;stroke-linejoin:miter;stroke-miterlimit:79.84031677;marker-start:none;marker-end:none;fill-opacity:1" />
  </g>
</svg>
