<?xml version="1.0" encoding="UTF-8" standalone="no"?>
<!-- Created with Inkscape (http://www.inkscape.org/) -->

<svg
   xmlns:dc="http://purl.org/dc/elements/1.1/"
   xmlns:cc="http://creativecommons.org/ns#"
   xmlns:rdf="http://www.w3.org/1999/02/22-rdf-syntax-ns#"
   xmlns:svg="http://www.w3.org/2000/svg"
   xmlns="http://www.w3.org/2000/svg"
   xmlns:sodipodi="http://sodipodi.sourceforge.net/DTD/sodipodi-0.dtd"
   xmlns:inkscape="http://www.inkscape.org/namespaces/inkscape"
   width="102mm"
   height="102mm"
   viewBox="0 0 102 102"
   version="1.1"
   id="svg28998"
   inkscape:version="0.92.2 (5c3e80d, 2017-08-06)"
   sodipodi:docname="minterna.svg">
  <defs
     id="defs28992" />
  <sodipodi:namedview
     id="base"
     pagecolor="#ffffff"
     bordercolor="#666666"
     borderopacity="1.0"
     inkscape:pageopacity="0.0"
     inkscape:pageshadow="2"
     inkscape:zoom="0.35"
     inkscape:cx="-110"
     inkscape:cy="560"
     inkscape:document-units="mm"
     inkscape:current-layer="layer1"
     showgrid="false"
     inkscape:window-width="1299"
     inkscape:window-height="713"
     inkscape:window-x="67"
     inkscape:window-y="27"
     inkscape:window-maximized="1" />
  <metadata
     id="metadata28995">
    <rdf:RDF>
      <cc:Work
         rdf:about="">
        <dc:format>image/svg+xml</dc:format>
        <dc:type
           rdf:resource="http://purl.org/dc/dcmitype/StillImage" />
        <dc:title></dc:title>
      </cc:Work>
    </rdf:RDF>
  </metadata>
  <g
     inkscape:label="Capa 1"
     inkscape:groupmode="layer"
     id="layer1"
     transform="translate(0,-195)">
    <path
       d="m 32.038467,253.40391 c -4.776261,1.86475 -14.754956,5.86591 -18.05192,8.06406 -4.3876467,2.90207 -7.0954346,6.17462 -9.4271173,11.1637 -2.3442622,4.98908 -3.79843682,10.78087 -3.79843682,16.06636 0,0.64218 0.40115772,1.25961 0.99033262,1.51898 13.7771335,6.07579 39.0749085,6.77972 50.0313945,6.77972 10.969064,0 36.25429,-0.70393 50.03142,-6.77972 0.58918,-0.25941 0.99034,-0.8768 0.99034,-1.51898 0,-5.28549 -1.45418,-11.07728 -3.798419,-16.06636 -2.331707,-4.98908 -5.039496,-8.26163 -9.427114,-11.1637 -3.196694,-2.13641 -12.724099,-5.97701 -17.66329,-7.91584 -0.463842,3.48247 -1.266157,6.91555 -2.682735,10.15105 -2.106069,5.10022 -6.268032,9.49656 -11.708661,11.10194 -1.216017,0.35815 -2.482139,0.58045 -3.773349,0.67923 0.626771,3.29726 1.892929,6.47099 3.92377,9.21252 1.905473,2.65508 4.926682,5.47073 8.486926,4.79152 4.174506,-1.23495 6.744382,-5.06319 8.499434,-8.81735 -1.29121,-0.85211 -2.269034,-2.14878 -2.544824,-3.70478 -0.839911,-3.42074 2.043385,-7.05142 5.603629,-7.12553 2.319174,-0.13593 4.613261,1.17319 5.666277,3.22316 1.730001,3.07496 -0.03767,7.29839 -3.422331,8.3234 -0.601718,0.22228 -1.216017,0.32101 -1.83028,0.3336 -1.755052,3.92705 -4.237191,7.69355 -8.01054,9.9535 -3.209226,2.14876 -7.634433,1.85235 -10.768468,-0.2965 -5.014418,-3.63068 -8.186048,-9.4842 -9.188924,-15.49828 -0.03767,-0.13593 -0.07533,-0.28391 -0.10021,-0.43222 -0.91514,-0.0863 -1.830245,-0.2223 -2.732841,-0.41989 -5.979699,-1.309 -10.492679,-6.17464 -12.724116,-11.60828 -1.316298,-3.18613 -2.168719,-6.58213 -2.569876,-10.01524 v 0 m 36.066209,0.18518 c -3.535156,4.56923 -8.725082,7.86644 -14.591957,8.49627 -6.81961,0.70389 -13.363432,-2.84033 -17.588079,-7.95291 0.388614,2.60568 1.002877,5.17434 2.018298,7.60713 1.667279,4.33457 5.039506,8.1999 9.652767,9.5583 2.783016,0.75332 5.829277,0.71626 8.624802,0.0146 5.854331,-1.5313 9.389522,-7.13787 10.843696,-12.57153 0.513983,-1.66715 0.789772,-3.40836 1.040473,-5.14961 v 0 m 9.916048,18.09161 c -0.413701,0 -0.827403,0.0615 -1.22856,0.17292 -2.833122,0.74097 -3.898718,4.61861 -1.830245,6.68094 1.842788,2.18582 5.866874,1.5313 6.882295,-1.16083 1.241069,-2.54394 -0.965281,-5.82883 -3.82349,-5.693 z"
       id="path2822"
       inkscape:connector-curvature="0"
       style="font-size:medium;font-family:'Times New Roman';overflow:visible;fill:#c1bfd0;fill-rule:evenodd;stroke:none;stroke-width:1.24422932;stroke-linejoin:miter;stroke-miterlimit:79.84031677;marker-start:none;marker-end:none;fill-opacity:1" />
    <path
       d="m 51.78272,196.46161 c -10.768469,0.14804 -16.585167,4.8903 -19.368183,9.6571 -2.795561,4.76678 -2.745385,9.53361 -2.745385,9.58301 0,0.0371 -0.113001,8.26163 -0.113001,8.26163 -0.150315,0.0742 -0.300984,0.1235 -0.438791,0.21003 -0.601718,0.41989 -0.990332,1.01264 -1.228525,1.61775 -0.501438,1.22258 -0.551579,2.56866 -0.551579,4.27284 0,5.39662 3.146542,10.52155 6.280577,13.53477 2.45705,8.91613 9.55245,15.60944 18.164709,15.85641 8.612294,-0.24682 15.707694,-6.94028 18.164745,-15.85641 3.134034,-3.01322 6.280576,-8.13815 6.280576,-13.53477 0,-1.70418 -0.05011,-3.05026 -0.539034,-4.27284 -0.250524,-0.60511 -0.639351,-1.19786 -1.24107,-1.61775 -0.137877,-0.0866 -0.288191,-0.13592 -0.43879,-0.21003 0,0 0.501474,-4.28519 -0.113002,-8.18756 -0.614262,-3.89 -1.654735,-6.52037 -3.785857,-8.17515 -0.739631,-4.82859 -3.008665,-7.01439 -7.057804,-8.78031 -2.732876,-1.17319 -6.644137,-2.29697 -11.269942,-2.35872 z"
       id="path2824"
       inkscape:connector-curvature="0"
       style="font-size:medium;font-family:'Times New Roman';overflow:visible;fill:#c1bfd0;fill-rule:evenodd;stroke:none;stroke-width:1.24422932;stroke-linejoin:miter;stroke-miterlimit:79.84031677;marker-start:none;marker-end:none;fill-opacity:1" />
  </g>
</svg>
