<?xml version="1.0" encoding="UTF-8" standalone="no"?>
<!-- Created with Inkscape (http://www.inkscape.org/) -->
<svg xmlns:rdf="http://www.w3.org/1999/02/22-rdf-syntax-ns#" xmlns="http://www.w3.org/2000/svg" height="361" width="361" version="1.1" xmlns:cc="http://creativecommons.org/ns#" xmlns:dc="http://purl.org/dc/elements/1.1/" viewBox="0 0 95.514581 95.514586">
 <metadata>
  <rdf:RDF>
   <cc:Work rdf:about="">
    <dc:format>image/svg+xml</dc:format>
    <dc:type rdf:resource="http://purl.org/dc/dcmitype/StillImage"/>
    <dc:title/>
   </cc:Work>
  </rdf:RDF>
 </metadata>
 <g transform="translate(0 -201.49)">
  <path d="m94.655 250.49c0 2.5294-0.18936 5.0589-0.61541 7.4929-3.5504 22.192-22.628 39.183-45.682 39.183-2.6036 0-5.1599-0.23862-7.6216-0.62043-19.456-3.2453-34.794-18.708-38.013-38.324-0.42605-2.4817-0.61541-5.0589-0.61541-7.6838 0-23.195 16.805-42.476 38.865-46.055 2.4143-0.38181 4.8759-0.62043 7.3849-0.62043 25.563 0 46.297 20.904 46.297 46.628z" class="st7" stroke-width=".47532" fill="#c1bfd0"/>
  <path opacity=".7" d="m49.872 217.12c-1.4202 1.1454-2.4616-1.0977-3.8818 0.0478-0.28403 0.0954 0.09468 2.5294 0.18936 3.5317 0.28403 2.6726 0.56807 6.2998 0 8.9724-0.04734-0.0478-3.5504-3.484-4.4025-4.4862-0.09468 0.0478-3.0297-0.95452-3.8344-0.85906-0.6154 0.14322-0.66274 0.28635-0.56807 0.19089-0.71008 0.62044-12.119 14.461-14.817 18.708-1.7515 4.3907-2.5563 6.9202-3.9765 11.406 0 0.28635 0 11.55 0.18936 12.981 0.42605 4.009 1.5148 8.2565 1.5148 8.2565l0.6154 0.62041 19.788 19.949c2.4616 0.42952 5.0179 0.62043 7.6216 0.62043 23.054 0 42.132-16.943 45.682-39.183l-32.333-32.55-5.302-1.38z" class="st8" stroke-width=".47532" fill="#c1bfd0"/>
  <g fill="#fff" transform="matrix(.47339 0 0 .47726 -126.7 135.13)">
   <path class="st0" d="m372.1 187.9v-2.2c0-0.6 0-1.3 0.1-1.9-1 0.5-2 0.7-3.1 0.7s-2.3-0.2-3.3-0.7c0.1 1.5 0.2 3 0.3 4.4 1 0.1 1.9 0.1 2.9 0.1s2.1-0.1 3.1-0.4z"/>
   <path class="st0" d="m369.4 202.4c1.2-0.1 2.5-0.3 3.6-0.6 0.6-0.2 1.2-0.5 1.8-0.9-0.6-1.5-1.2-3.1-1.6-4.7-0.3 0.2-0.6 0.3-0.9 0.5-1.1 0.5-2.2 0.7-3.4 0.7s-2.3-0.1-3.4-0.6c-0.3 1.7-0.7 3.4-1.3 4.9 0.5 0.2 1 0.3 1.5 0.4 1.2 0.3 2.5 0.4 3.7 0.3z"/>
   <path class="st0" d="m377.1 209.9c-0.6 0.7-1.3 1.3-2.1 1.8 1.1 1 2.4 1.9 3.7 3 1.1-1.5 2.2-2.9 3.4-4.3 2.3-2.7 4.6-5.2 5.8-8.1 0.6-1.5 0.8-2.9 0.8-4.6 0-0.8-0.1-1.6-0.2-2.4-0.1-0.7-0.4-1.5-0.6-1.8-0.1-0.1-0.1-0.1-0.2-0.1-0.2 0-0.4 0.2-0.7 0.4-0.5 0.5-0.9 1.1-1.2 1.8-0.6 1.4-0.5 3.2 0.6 4.6-0.8-0.4-1.4-1.2-1.7-2.1s-0.4-1.9-0.2-2.9 0.5-1.9 1.2-2.7c0.3-0.4 0.8-0.8 1.5-1.1s1.7-0.1 2.2 0.4c1.1 1 1.3 2 1.5 2.9 0.2 1 0.3 1.9 0.4 2.8 0.1 1.8-0.2 3.9-0.9 5.6-0.7 1.8-1.8 3.3-3 4.7s-2.5 2.6-3.8 3.8c-1.9 1.8-3.8 3.5-5.6 5.4-0.9 2.1-1.7 4.3-2.1 6.9-0.6 3.3-0.8 7-0.9 10.7 3.8 1.5 7.7 2.4 11.7 2.9 4.8 0.5 9.7 0.3 14.4-0.5 4.8-0.8 9.4-2.2 13.8-4.2 3.5-1.6 6.9-3.6 9.8-6.3-7.1-14.3-15.6-23.1-16.1-23.8-6.8-9.7-12-17.9-17.7-17.9-3.6 0-9.3 2.8-9.3 12.7 0 1.6 0.1 3.3 0.1 5 0 1.9-0.1 3.7-0.5 5.4-0.1 0.5-0.2 1-0.4 1.5-0.7-0.7-1.4-1.5-2-2.3-0.5 1.2-1.1 2.1-1.7 2.8z"/>
   <path class="st0" d="m366 195.3c1 0.1 2 0.1 3 0.1s2-0.1 3-0.3c0.4-0.1 0.7-0.1 1.1-0.2-0.4-1.8-0.6-3.6-0.7-5.5-1 0.5-2.1 0.7-3.2 0.8-1 0.1-2 0-3-0.3 0 1.8-0.1 3.6-0.3 5.3-0.1 0.1 0 0.1 0.1 0.1z"/>
   <path class="st0" d="m369 182.6c1 0 2.1-0.2 3.1-0.4 0.1 0 0.1 0 0.2-0.1 0.2-2.3 0.5-4.8 0.8-7-0.1 0-0.1 0.1-0.2 0.1-1.1 0.7-2.4 1.1-3.7 1.2-1.3 0-2.7-0.3-3.8-1-0.2-0.1-0.3-0.2-0.5-0.4 0.3 2.4 0.5 4.8 0.8 7.2 0.1 0 0.2 0.1 0.4 0.1 0.8 0.3 1.9 0.4 2.9 0.3z"/>
   <path class="st0" d="m366.1 173.7c1 0.3 2 0.3 2.9 0.3 1 0 2-0.2 3-0.5 0.4-0.1 0.8-0.3 1.3-0.4v-0.2c0-4.1-9.3-2.9-8.7 0v0.2c0.5 0.3 1 0.5 1.5 0.6z"/>
   <path class="st0" d="m388 282c3.6-1.3 7-2.9 10.3-4.8 5-2.8 9.8-6.1 14.1-9.8 4.4-3.7 8.4-7.8 12-12.4 2.6-3.4 5-6.9 6.9-10.8-1.7-6.2-4-11.9-6.5-17-2.5 3.1-5.7 5.6-9.2 7.5-4.4 2.5-9.3 4.1-14.3 4.9s-10.1 0.9-15.1-0.1c-4-0.7-8-2.2-11.4-4.3-0.1 3-0.1 6-0.1 8.7 0 21.2 5.7 32.1 13.3 38.1z"/>
   <path class="st0" d="m317.2 230.6c2.2 1.1 4.6 2.1 6.9 3 4.7 1.7 9.6 3 14.5 3.8 2.5 0.5 4.9 0.8 7.4 1s5 0.3 7.5 0.2 5-0.4 7.4-1c1.4-0.4 2.8-0.9 4.1-1.5-0.1-4.1-0.3-8.3-1-12-0.5-2.9-1.4-5.3-2.4-7.6-1.8-1.4-3.7-2.8-5.4-4.3-2.6-2.2-5.2-4.8-6.9-8.1-0.9-1.6-1.4-3.6-1.4-5.5 0-0.9 0.1-1.9 0.3-2.8s0.5-1.9 1.2-2.8c0.3-0.4 0.7-0.8 1.3-1.1 0.5-0.3 1.2-0.4 1.9-0.3 1.3 0.3 2.1 1.4 2.3 2.3 0.4 2-0.4 3.8-1.4 5.2 0.5-1.6 0.8-3.4 0.2-4.7-0.3-0.6-0.8-1-1.3-1-0.4 0-0.8 0.3-1.1 0.9-0.7 1.1-0.8 2.8-0.8 4.3s0.5 3 1.1 4.4c1.4 2.8 3.6 5.3 5.9 7.8 1.5 1.6 3 3.2 4.5 4.9 1.2-1.4 2.3-2.8 3.4-4.3-0.1 0-0.3-0.1-0.4-0.1-0.8-0.3-1.6-0.8-2.2-1.5-0.7-0.6-1.2-1.4-1.6-2.2 0-0.1 0-0.1-0.1-0.2-0.6 0.8-1.3 1.5-2.1 2.2-0.1-0.4-0.2-0.9-0.3-1.3-0.4-1.7-0.5-3.6-0.5-5.4 0-1.7 0.1-3.4 0.1-5 0-9.9-5.6-12.7-9.3-12.7-5.8 0-11 8.2-17.7 17.9-0.5 0.8-9.9 10.4-17.2 26 1 0.4 2 1 3.1 1.5z"/>
   <path class="st0" d="m373.8 210.7 1.8-2 1.8-2.1c0.1-0.1 0.2-0.3 0.3-0.4-1-1.4-1.8-2.8-2.5-4.3-0.4 0.5-0.9 1-1.5 1.3-1.3 0.8-2.7 1.1-4.2 1.2s-2.9-0.2-4.3-0.8c-0.5-0.2-1-0.5-1.4-0.8-0.5 1.2-1.2 2.3-1.9 3.4 0.2 0.2 0.3 0.4 0.5 0.6 0.5 0.6 1.1 1.1 1.6 1.6 0.7 0.6 1.4 1.3 2.1 1.9 1.2-1.7 2.4-3.4 3.4-5.2 1.2 2.4 2.7 4.1 4.3 5.6z"/>
   <path class="st0" d="m431.6 245.5c-1.3 3.8-3.3 7.4-5.6 10.7-3.3 4.9-7.4 9.3-11.9 13.1s-9.5 7.1-14.9 9.7c-3.3 1.6-6.7 2.9-10.3 3.7 8.8 6.3 19.8 6.7 27.5 8.6 4 1 7 4.9 11.3 4.9 2.4 0 6.7-16.3 6.7-29.6 0-7.5-1.1-14.6-2.8-21.1z"/>
   <path class="st0" d="m361.2 238.8c-2.4 1-5 1.5-7.6 1.8-5.2 0.6-10.4 0.2-15.5-0.7s-10.1-2.4-14.8-4.5c-2.4-1.1-4.6-2.3-6.8-3.7-0.9-0.6-1.8-1.3-2.7-2.1-2.6 5.6-4.9 11.9-6.4 18.8 1.5 2.2 3.1 4.2 4.7 6.2 3.8 4.5 8 8.7 12.4 12.6s9.1 7.5 14.1 10.7c3.4 2.2 6.9 4.2 10.6 5.9 8.8-5.6 15.8-16.4 15.8-39.7v-7.2c-1.2 0.7-2.4 1.4-3.8 1.9z"/>
   <path class="st0" d="m337.6 279.6c-5.3-3-10.2-6.5-14.7-10.5s-8.7-8.4-12.3-13.3c-1.3-1.7-2.5-3.6-3.6-5.4-1 5.1-1.6 10.5-1.6 16.2 0 13.3 4.2 29.6 6.7 29.6 4.3 0 7.3-3.9 11.3-4.9 7-1.7 16.7-2.2 25-7-3.9-1.1-7.4-2.8-10.8-4.7z"/>
  </g>
 </g>
</svg>
