<?xml version="1.0" encoding="UTF-8" standalone="no"?>
<!-- Created with Inkscape (http://www.inkscape.org/) -->
<svg xmlns:rdf="http://www.w3.org/1999/02/22-rdf-syntax-ns#" xmlns="http://www.w3.org/2000/svg" height="361" width="361" version="1.1" xmlns:cc="http://creativecommons.org/ns#" xmlns:dc="http://purl.org/dc/elements/1.1/" viewBox="0 0 95.514581 95.514586">
 <metadata>
  <rdf:RDF>
   <cc:Work rdf:about="">
    <dc:format>image/svg+xml</dc:format>
    <dc:type rdf:resource="http://purl.org/dc/dcmitype/StillImage"/>
    <dc:title/>
   </cc:Work>
  </rdf:RDF>
 </metadata>
 <g transform="translate(0 -201.49)">
  <g fill="#c1bfd0" transform="matrix(.76797 0 0 .71752 -592.54 -124.13)">
   <path d="m846.3 569.1c-0.4 0-0.8 0-1.1-0.1 0.3-0.9 0.5-1.7 0.8-2.5 1.3-3.1 2.1-5.9 2.4-8.4 2.8-0.9 5.3-2.9 7.2-5.9 0.4 0.6 0.9 1.1 1.5 1.6 3.1 3 7.2 4.8 11 4.8 2.9 0 5.6-1.2 7.4-3.3 0.8 0.2 1.6 0.3 2.4 0.3 1.2 0 2.5-0.2 3.8-0.7-2.9 7.7-10.6 12.9-19.6 13h-0.1c-1.7 0-3-0.4-4.4-0.9-1.5-0.5-3-1-5-1-1.9 0-2.9 1-3.9 1.8-0.7 0.7-1.3 1.3-2.4 1.3z" class="st0"/>
   <path d="m824.8 569.2c-1 0-1.8-0.5-2.7-1.1-1.1-0.7-2.3-1.5-4.1-1.5-1.3 0-2.8 0.3-4.4 0.6-1.7 0.3-3.4 0.6-4.8 0.6h-0.5c-9.7-0.5-14.8-8.6-16.6-12.4 0.9 0.2 1.8 0.3 2.6 0.3s1.6-0.1 2.4-0.3c1.8 2.2 4.4 3.3 7.4 3.3 3.5 0 7.2-1.5 10.2-4.1l0.1 0.1c1.8 1.9 4.3 3 7.5 3.3 0.4 2.5 1.3 5.4 2.8 8.7 0.3 0.7 0.6 1.4 0.8 2.1-0.4 0.3-0.6 0.4-0.7 0.4z" class="st0"/>
   <path d="m835.6 585.7c-2.2 0-4.4-0.9-4.4-2.9-0.1-9.3-1.3-12-2.4-14.4l-0.3-0.7c-0.1-0.3-0.3-0.6-0.4-0.9-1-2.8-1.8-5.3-2.3-7.5l0.1 0.1c1 1.3 2.6 3.2 5 3.2 1.2 0 2.2-0.6 3.1-1.1 0.4-0.2 1-0.6 1.2-0.6s0.7 0.3 0.9 0.5c0.8 0.5 2 1.2 3.4 1.2 2.8 0 3.7-1.8 4.2-2.9 0.5-0.9 0.6-1 1-1h0.1c-0.4 2-1.1 4.1-2 6.5-0.4 1-0.8 2.1-1.1 3.3-1.8 6.7-1.2 14.2-1.2 14.3-0.1 1.9-2.6 2.9-4.9 2.9z" class="st0"/>
   <path d="m830.9 559c-0.7 0-1.4-0.9-2.2-1.8-1-1.2-2.1-2.5-3.6-2.5h-1.5-1.4c-2.4-0.2-4.2-1-5.5-2.6 1.3-1.7 2.1-3.6 2.4-5.4 3.1-2.4 4.1-5.6 4.9-8 0.1-0.2 0.1-0.5 0.3-0.8 1 0.5 2.6 1.1 4.7 1.1 3.1 0 5.8-1.4 7.1-3.7 1.3 2.3 4 3.7 7.1 3.7 2.1 0 3.8-0.7 4.7-1.1 0.1 0.3 0.2 0.5 0.2 0.7 0.8 2.4 1.9 5.7 4.9 8.1 0.1 0.7 0.3 1.4 0.6 2.2-1.5 2.9-3.4 4.9-5.7 5.8-0.7 0.3-1.5 0.5-2.3 0.6h-0.8c-2.4 0-3.1 1.3-3.7 2.3-0.5 0.8-0.8 1.4-1.9 1.4-0.2 0-0.6-0.2-1-0.5-0.7-0.5-1.7-1.1-3-1.1-1.1 0-2.2 0.6-3 1.1-0.5 0.2-1 0.5-1.3 0.5z" class="st0"/>
   <path d="m792.3 522.4c-0.8-0.4-1.7-0.8-2.5-1-3-0.9-3.9-3.3-4.7-5.8-0.7-1.9-1.4-3.9-3.2-5-0.7-0.4-1.4-0.7-1.9-0.9-1-0.4-1.6-0.8-2.4-1.7-0.9-1-1.6-2-2.2-3-0.9-3.3-0.2-4.8 0.8-6.5 0.5 0.7 1.2 1.4 2.1 2.2 1.7 1.5 3.3 2.2 4.8 2.2 0.6 0 1.1-0.1 1.7-0.3 2-0.9 1.4-3.4 1.2-4.3l-0.3-1.2v-0.2-1.3c0-0.7 0.3-1.4 0.8-2.1 0.4-0.5 0.9-0.9 1.7-1.1s1.5-0.6 2.1-1.1c1-0.8 1.6-2.1 2-3.8 0.2-0.8 0.2-1.5 0.1-2.4 0.9 0.8 2 1.3 3.2 1.6 0.3 0.1 0.6 0.1 1 0.1 0.8 0 1.5-0.2 2.3-0.4 0.2-0.1 0.5-0.1 0.7-0.1 0.3 0 0.6 0.1 0.9 0.2l0.4 0.2c0.2 0.5 0.4 0.9 0.7 1.3 0.4 0.7 0.8 1.3 0.9 2 0.3 1.2-0.6 2.9-1.8 3.6-0.7 0.4-1.6 0.7-2.5 0.9-1.2 0.3-2.3 0.5-3.3 0.7-2 0.3-3.8 1.4-4.6 3-1.1 2-0.8 4.3-0.5 5.6 0.1 0.3 0.2 0.7 0.2 1 0.1 0.6 0.3 1.3 0.4 1.9 0.1 0.7 0 1.4-0.1 2.1s-0.4 1.3-0.8 1.6c-0.3 0.3-0.6 0.4-0.9 0.4-0.1-0.1-0.2-0.2-0.2-0.3-0.1-0.1-0.2-0.3-0.3-0.4-0.4-0.4-0.6-0.8-0.8-1.2-0.3-0.7-0.5-1.6-0.2-1.9 0 0 0.1-0.1 0.3-0.1 0.5 0 0.8-0.4 0.8-0.9 0-0.4-0.4-0.8-0.9-0.8-0.9 0-1.4 0.4-1.7 0.8-0.9 1.1-0.4 2.9-0.1 3.9 0.2 0.5 0.5 0.9 0.8 1.3l0.1 0.1c0.1 0.1 0.2 0.3 0.4 0.4 0.3 0.3 0.5 0.6 0.8 0.9 0.8 0.8 2 1.2 3.1 1.6 1.6 0.5 1.6 1.7 1.5 3.6 0 0.6-0.1 1.2 0 1.8 0 0.3 0.1 0.6 0.1 0.9 0 0.2 0.1 0.5 0.1 0.7-0.1 0.5-0.1 0.8-0.1 1.2z" class="st0"/>
   <path d="m833.3 476c-0.3-0.3-0.5-0.7-0.7-1-0.5-0.9-0.8-2-1.1-3.1l-0.1-0.4c-0.1-0.3-0.2-0.7-0.3-1-0.1-0.2-0.1-0.5-0.2-0.7-0.1-0.3-0.1-0.7-0.1-1.1v-0.7c0.8-0.3 1.6-0.8 2.2-1.5 0.1-0.1 0.2-0.3 0.4-0.4v0.1c0 0.2-0.6 6 0.3 8.5 0 0.1 0 0.3-0.2 0.6 0 0.1-0.1 0.4-0.2 0.7z" class="st0"/>
   <path d="m776.5 515.6c0.1-0.7 0.1-1.5 0.1-2.3 0-0.5 0-1.1 0.1-1.7 0-0.5 0.1-0.9 0.1-1.4 0.7 0.6 1.4 1.2 2.1 1.6 0.3 0.2 0.6 0.4 0.9 0.5l0.1 0.1c0.8 0.5 1.6 0.9 2.1 1.6 0.2 0.3 0.4 0.8 0.6 1.4-0.9-0.3-2-0.5-3-0.5h-0.8c-0.8 0.1-1.6 0.4-2.3 0.7z" class="st0"/>
   <path d="m828 535.6c-1.7 0-2.8-0.6-3.7-1-0.7-0.3-1.2-0.6-1.8-0.6-0.2 0-0.4 0-0.6 0.1h-0.7c-0.4 0-0.9 0-1.3 0.1h-0.5c-0.3 0-0.5 0-0.8 0.1-0.5 0-0.9 0.1-1.3 0.1h-0.3c-0.3 0-0.6-0.1-1-0.3l-0.2-0.2c-0.9-0.5-1.5-0.8-2.1-1.3-0.2-0.1-0.3-0.2-0.5-0.4-0.4-0.3-0.7-0.6-1-1s-0.6-0.7-0.9-1.1c-0.5-0.7-0.8-1.5-1.2-2.6-0.3-1-0.6-2.1-0.6-3.2 0-1 0.5-1.8 1.2-2.3 0.3-0.2 0.5-0.2 0.9-0.2 0.6 0 1.3 0.3 2.2 0.9l0.4 0.3c0.6 0.5 1.3 1 2.2 1.3 0.8 0.2 1.6 0.4 2.4 0.4h0.4 0.4 0.5c0.4-0.1 0.7-0.4 0.7-0.8 0-0.3-0.2-0.6-0.5-0.7 0 0-0.1-0.1-0.2-0.1-0.5-0.1-0.9-0.1-1.3-0.1h-0.6c-0.7-0.1-1.3-0.3-2-0.7-0.3-0.2-0.6-0.4-0.9-0.7-0.7-0.5-1.4-1-2.4-1.4-0.5-0.2-0.9-0.2-1.4-0.2-0.8 0-1.6 0.2-2.2 0.7-0.2-0.3-0.4-0.6-0.7-0.9-0.4-0.4-0.9-0.7-1.3-1l-0.1-0.1c-0.1-0.1-0.3-0.2-0.4-0.3-0.6-0.4-1.2-0.8-2.1-0.9h-0.3c-0.4 0-0.9-0.1-1.3-0.1h-0.7c-0.9 0.1-1.5 0.6-2 1-1 0.8-1.7 2.3-1.8 3.9 0 0.2 0.1 0.4 0.2 0.6 0.2 0.1 0.4 0.2 0.6 0.2 0.3 0 0.5-0.1 0.6-0.3 0.2-0.3 0.4-0.7 0.6-1 0.3-0.5 0.6-1 0.9-1.4 0.3-0.3 0.6-0.6 1.1-0.8 0 0 0.2-0.1 0.5-0.1h0.6 0.6c0.4 0 0.8 0 1.3 0.1s1 0.5 1.5 0.8 0.8 0.7 1 1.1c0 0.1 0.1 0.2 0.1 0.3-0.4 0.6-0.7 1.4-0.8 2.1-0.3 2.1 0.5 4.8 1.9 7.3 0.2 0.3 0.3 0.5 0.6 0.8h-0.1c-0.3 0.1-0.5 0.1-0.8 0.1-0.5 0-1.5-0.2-3.8-1.8-0.6-0.4-1.1-0.6-1.7-0.6-0.3 0-0.6 0.1-0.9 0.1-0.2 0.1-0.4 0.1-0.7 0.1s-0.6-0.1-0.9-0.2c-1.5-0.6-2.5-2-3.5-3.3-0.7-0.9-1.3-1.7-2-2.3-0.3-0.5-0.5-0.8-0.5-1.1 0.1-1.1-0.1-2-0.2-3.2-0.1-0.5 0-1.1 0.1-1.7 0-0.4 0.1-0.8 0.1-1.1 0-1.1-0.1-2-0.5-2.8s-1.2-1.4-2.3-1.8c-0.2-0.1-0.9-0.3-1.1-0.4 0.3-0.2 0.5-0.4 0.7-0.6 1.1-1.2 1.2-2.8 1.2-4.3 0-1-0.2-2-0.4-2.9-0.2-1-0.5-1.9-0.4-2.9 0.1-0.8 0.2-1.7 0.8-2.4 0.7-0.7 1.4-1.2 2.4-1.4 0.5-0.1 1.1-0.2 1.6-0.3h0.1c0.4-0.1 0.9-0.1 1.3-0.2 0.9-0.2 2-0.5 3-0.9 1.7-0.7 2.8-2 3.5-3.7 0.1-0.4 0.2-0.8 0.3-1.1 0.3-0.4 0.6-0.7 1.1-1.1l0.9-0.6c0.2-0.1 0.4-0.1 0.7-0.2 0.2-0.1 0.4-0.1 0.6-0.2 0.4-0.1 0.6-0.4 0.6-0.8s-0.3-0.7-0.6-0.8c-0.2 0-0.4-0.1-0.6-0.1-0.9 0-1.8 0.5-2.9 1.5-0.2-0.5-0.4-1-0.7-1.5-0.4-0.7-0.8-1.4-1-2.2-0.2-0.9-0.2-1.9-0.2-2.7 0-0.4 0.1-0.9 0.2-1.2l0.1-0.4c0-0.2 0-0.5-0.2-0.7s-0.4-0.3-0.6-0.3c-0.3 0-0.5 0.1-0.7 0.4-0.7 1.2-0.9 2.5-0.8 4-0.4-0.1-0.8-0.1-1.1-0.1h-0.8-0.2c-0.5 0.1-1 0.1-1.5 0.1-0.4 0-0.7 0-1.1-0.1-0.6-0.2-1.2-0.5-1.8-1.1-1-1-1.5-2.7-1.2-4 0.1-0.3 0.2-0.6 0.4-0.9l0.2-0.3c0.1-0.3 0.2-0.5 0.3-0.8 0.1-0.2 0.1-0.4 0.2-0.6 0.2-0.5 0.6-0.8 1.1-1.2 0.3-0.3 0.6-0.5 0.9-0.9 0.2-0.2 0.3-0.6 0.1-0.9s-0.5-0.5-0.8-0.5h-0.3c-2.2 0.5-3.1 2.6-3.7 4.2l-0.3 0.6c-0.6 1.4-0.6 2.9-0.1 4.4-0.4 0.7-0.4 1.5-0.5 2.2 0 0.3 0 0.6 0.1 0.8v0.4c0 0.4-0.1 0.8-0.2 1.3-0.4 1.6-1.1 2.7-2.3 3.2-0.2 0.1-0.4 0.1-0.5 0.2-0.5 0.2-1 0.4-1.5 0.8-0.6 0.4-1.1 1.1-1.4 1.8 0 0.1-0.1 0.2-0.1 0.3-0.4-0.6-0.8-1.2-1.3-1.7-0.2-0.2-0.4-0.3-0.7-0.3s-0.6 0.1-0.8 0.4c-0.2 0.2-0.2 0.5-0.2 0.8 0.2 0.7 0.5 1.3 0.8 1.8l0.3 0.6c0.4 0.8 0.8 1.7 1 2.7 0 0.1 0.1 0.3 0.1 0.5 0.2 0.7 0.5 1.8 0.1 2.2-0.1 0.1-0.3 0.1-0.5 0.1-0.6 0-1.3-0.3-1.5-0.4-0.8-0.4-1.6-1-2.2-1.6-0.7-0.6-1.4-1.3-1.9-2-0.1-0.2-0.2-0.4-0.4-0.6-0.6-4.1 0.6-8.6 2.9-11.3h0.3c0.3 0 0.6 0 0.9-0.1h0.4 0.3c0.4 0 0.7 0.1 1.1 0.1 0.2 0.1 0.7 0.5 0.9 0.7 0.4 0.4 0.8 0.7 1.1 0.8 0.1 0.1 0.2 0.1 0.3 0.1 0.3 0 0.6-0.2 0.8-0.5s0.1-0.7-0.2-1l-0.3-0.3c-0.7-0.7-1.3-1.3-1.9-1.6-0.4-0.2-0.9-0.3-1.5-0.3h-0.7-0.2c1.7-5.3 6-9.8 13.1-13.7l0.3 0.3c0.4 0.4 0.8 0.8 1.1 1.3s0.6 1 0.8 1.4c0.1 0.3 0.2 0.5 0.3 0.8s0.2 0.6 0.3 0.8c0.1 0.3 0.5 0.6 0.8 0.6 0.4 0 0.7-0.2 0.8-0.6 0.3-1.1-0.1-2.1-0.5-2.8-0.2-0.3-0.4-0.7-0.6-1h0.3c0.9-0.1 1.8-0.3 2.6-0.6 0.5-0.1 1-0.3 1.4-0.4 0.5-0.1 1-0.2 1.7-0.2s1.5 0.1 2.4 0.2c0.6 0.1 1.2 0.2 1.7 0.5 0.3 0.1 0.5 0.3 0.8 0.4 0.3 0.2 0.6 0.3 0.9 0.5 0.1 0.1 0.2 0.1 0.4 0.1 0.3 0 0.6-0.2 0.8-0.4 0.2-0.3 0.2-0.6 0-0.9-0.6-1-1.8-1.5-2.9-1.8-1-0.3-2.2-0.4-3.7-0.4h-0.5c-1.3 0-2.5 0.3-3.9 0.7-0.8 0.2-1.4 0.4-2 0.4h-0.7c-0.4 0-0.6 0-0.8-0.1l-0.4-0.4c0-0.1 0.1-0.1 0.1-0.2 1.1-2 3.1-5.7 9.5-5.7 0.6 0 1.3 0 2 0.1h0.3l0.2-0.2s0-0.1 0.1-0.1c0 0.1 0.1 0.1 0.1 0.2 0.6 1.1 1.6 2.1 3.2 3 0.3 0.3 0.6 0.5 1 0.7 0.1 0 0.2 0.1 0.2 0.1 0.3 0.2 0.5 0.3 0.8 0.4 0.6 0.3 1.2 0.6 1.7 1.1 0.7 0.6 1.3 1.3 1.7 2 0.2 0.3 0.3 0.7 0.5 1.1 0.2 0.5 0.4 1.1 0.8 1.6 0.2 0.2 0.4 0.3 0.7 0.3 0.5 0 0.9-0.4 0.9-0.8 0-0.8-0.4-1.7-0.7-2.4l-0.1-0.1c-0.4-0.9-1.2-1.7-1.8-2.4 0.7 0 1.5-0.1 2.1-0.3 0.4-0.1 0.6-0.5 0.6-0.8 0-0.4-0.3-0.7-0.7-0.8-0.6-0.1-1.2-0.1-1.9-0.2h-0.6c-0.9 0-1.7-0.2-2.4-0.5-1.1-0.4-2.6-1.2-3.6-2.3-0.2-0.2-0.3-0.4-0.4-0.7h0.3 0.5c0.6 0 1.1-0.4 1.9-0.9 1.6-1 4-2.6 8.3-2.6 2.2 0 5.1 0.2 7.5 1.5 1.7 0.9 3.1 2.4 3.9 4.1 0 0 0 0.1-0.1 0.1-0.2 0.3-0.4 0.7-0.6 1-0.2 0.4-0.5 0.8-0.7 1.2-0.6 0.8-1.4 1.2-2.3 1.2-0.6 0-1.2-0.1-1.8-0.4-0.9-0.4-1.4-1.1-2-2-0.4-0.6-0.9-1.3-1.5-1.8-0.2-0.1-0.4-0.3-0.6-0.4-0.5-0.3-1-0.7-1-1 0-0.4 0.4-1.2 0.7-1.7l0.2-0.3c0.2-0.3 0.1-0.6 0-0.9-0.2-0.2-0.4-0.4-0.7-0.4-0.2 0-0.3 0-0.5 0.1-0.9 0.6-1.4 1.9-1.5 2.6-0.4 1.5 0.9 2.4 1.5 2.9 1 0.7 1.6 1.5 2.2 2.5 0.7 1.1 1.6 1.9 2.7 2.4 0.8 0.4 1.7 0.6 2.5 0.6-0.1 1.1 0 2 0.3 3 0.3 1.2 0.5 2.4 1 3.7 0.1 0.2 0.1 0.4 0.2 0.6-1.2-0.3-2.4-0.4-3.2-0.5h-0.4c-0.4 0-0.6 0-0.8 0.1-0.3 0-0.6 0.1-1.5 0.1h-0.8-1.1c-0.7 0-1.5 0-2.4-0.3-0.7-0.2-1.2-0.5-1.9-0.9-0.6-0.3-1.1-0.6-1.8-0.9-0.8-0.3-1.6-0.4-2.4-0.4-0.4 0-0.7 0-1.1 0.1-0.5 0.1-1.1 0.2-1.7 0.5-0.3 0.1-0.5 0.2-0.7 0.4-0.1 0.1-0.2 0.1-0.2 0.2-0.3 0.1-0.4 0.4-0.4 0.7 0 0.4 0.2 0.7 0.6 0.8h0.2c0.4 0 0.6-0.2 0.8-0.3 0.4-0.2 0.9-0.4 1.7-0.4h0.6 0.7c0.6 0 1.2 0.4 1.7 0.7l0.1 0.1c0.2 0.1 0.5 0.3 0.7 0.4 0.9 0.5 1.8 1 2.9 1.3 0.5 0.1 1 0.2 1.5 0.2l-0.6 0.6-0.5 0.5c-0.6 0.7-1.1 1.3-1.8 1.7s-1.6 0.6-2.5 0.8c-0.3 0.1-0.5 0.1-0.8 0.2-0.4 0.1-0.7 0.5-0.6 0.9s0.4 0.7 0.9 0.7c1.9 0 4-0.3 5.8-2l0.9-0.9c0.4-0.5 0.8-0.9 1.2-1.2 0.8-0.7 1.7-1.2 2.7-1.4 0.3-0.1 0.6-0.1 0.9-0.1 0.7 0 1.5 0.1 2.2 0.3 1.1 0.2 2 0.6 2.7 1.1 0.5 0.4 0.9 0.9 1.2 1.5 0.1 0.7 0.1 1.5 0.1 2.3 0 0.4-0.1 0.8-0.2 1.2-0.1 0.5-0.2 1-0.2 1.5 0 0.8 0.1 1.6 0.1 2.4-1-1.4-2.5-2.6-4.7-2.6h-0.4c-1.7 0.1-2.9 1.3-3.7 2.3-0.1 0.1-0.3 0.4-0.3 0.4-0.4 0.5-0.6 0.9-1.1 1.1-0.2 0.1-0.4 0.1-0.7 0.1s-0.7-0.1-1-0.1c-1.2-0.3-2.2-0.4-3.1-0.4-0.7 0-1.3 0.1-1.8 0.2v-0.1c-0.2-0.9-1.2-1.1-1.9-1.3-0.2-0.1-0.4-0.1-0.5-0.2-0.3-0.1-0.5-0.2-0.8-0.3-0.4-0.1-0.7-0.3-1-0.5-0.4-0.3-0.7-0.6-1-1.1-0.5-0.7-0.7-1.6-0.9-2.7-0.1-0.5-0.1-1-0.1-1.3v-0.6c0-0.3-0.2-0.6-0.2-0.7-0.2-0.3-0.5-0.5-0.8-0.5h-0.3v-0.1l-0.1 0.1c-0.1 0.1-0.3 0.2-0.3 0.4-0.1 0.1-0.2 0.3-0.2 0.5v0.6 0.2c0 0.5 0.1 1.1 0.1 1.6 0.2 1.2 0.5 2.3 1 3.2 0.6 1.1 1.6 2 2.9 2.5 0.4 0.2 1 0.4 1.6 0.6 0.1 0 0.3 0 0.6 0.1 0.4 0 0.6 0.1 0.7 0.1-0.6 0.5-0.9 1.1-1.1 1.6-0.3 1-0.1 2 0.1 2.9 0.1 0.4 0.2 0.9 0.2 1.4 0 0.4 0.4 0.7 0.8 0.7s0.8-0.3 0.8-0.8v-0.9c0-0.8 0-1.5 0.1-2.3 0.1-0.9 0.5-1.3 1.4-1.5 0.3-0.1 0.5-0.1 0.8-0.1 0.7 0 1.3 0.1 2 0.3l1.5 0.3h0.5c1.8 0 3-1.1 3.6-2 0.8-1.2 1.6-1.9 2.6-1.9h0.3c1 0.1 1.7 0.7 2.3 1.6 0.7 0.9 1.3 2 1.7 3.1 0.2 0.5 0.6 1.5 0.3 2.2l-0.3 0.7h0.5c-0.1 0.6-0.1 1.3-0.2 1.9-0.2 1.4-0.3 2.9-0.3 4.4 0 0.5 0 1 0.1 1.5-0.2-0.3-0.3-0.7-0.4-1.1-0.1-0.3-0.2-0.5-0.3-0.8l-0.1-0.2c-0.2-0.5-0.4-1.1-0.8-1.6-0.5-0.6-1.1-1.2-1.7-1.6-1-0.7-2.2-0.8-3.3-0.8h-0.9-1.1c-0.5 0-1.1 0-1.7-0.2-0.5-0.1-0.7-0.4-1.1-0.7l-0.6-0.6c-0.2-0.1-0.3-0.2-0.5-0.2-0.3 0-0.6 0.2-0.7 0.4-0.1 0.3-0.1 0.6 0.1 0.8 0.1 0.1 0.2 0.2 0.2 0.3 0.3 0.4 0.6 0.8 1 1.2 0.5 0.4 1.2 0.6 2.1 0.7 0.5 0 0.9 0.1 1.3 0.1h1.1c0.9 0 1.7 0.1 2.4 0.3 1.3 0.6 1.7 1.7 2.2 3 0.4 1.2 0.9 2.5 2.1 3.4-0.1 0.1-0.1 0.2-0.2 0.3s-0.1 0.2-0.2 0.3c-0.1 0.2-0.2 0.4-0.3 0.5-1 0.8-2.3 1.3-4.1 1.4h-1.2c-1.1 0-2.3-0.1-3.3-0.2-1.1-0.1-2.3-0.2-3.4-0.2-0.7 0-1.4 0-2 0.1-0.2 0-0.4 0-0.6-0.1-0.7-0.1-1.4-0.4-2.3-0.9-1-0.5-2.5-1.9-2.2-3 0.1-0.6 1-1 1.2-1.1 0.3-0.1 0.6-0.1 0.9-0.2 0.5-0.1 1.1-0.1 1.6-0.4 1.6-0.8 2-2.5 1.9-3.7-0.1-0.5-0.5-0.8-1-0.8-0.4 0-0.7 0.2-0.9 0.6-0.1 0.3-0.2 0.5-0.3 0.8-0.1 0.4-0.2 0.7-0.4 1s-0.9 0.4-1.5 0.5c-0.4 0-0.7 0.1-1 0.2-0.8 0.2-1.4 0.6-1.9 1.1-0.2-0.2-0.3-0.4-0.5-0.5-0.3-0.3-0.7-0.5-1.1-0.7-0.3-0.4-0.6-0.6-1-0.9-0.2-0.1-0.3-0.2-0.5-0.3-0.6-0.5-1-1.3-0.7-1.7 0.1-0.2 0.4-0.5 0.7-0.7s0.5-0.5 0.8-0.8c0.5-0.6 0.8-1.3 0.8-2.1 0-0.2-0.1-0.4-0.2-0.6-0.1-0.1-0.3-0.2-0.6-0.2-0.4 0-0.7 0.3-0.8 0.7-0.1 0.7-0.5 1.2-1.3 1.9l-0.1 0.1c-0.5 0.4-1.2 0.9-1.3 1.8s0.1 1.6 0.7 2.5h-0.2c-1.7 0.4-2.7 1.9-3.1 2.6-0.2 0.3-0.3 0.7-0.5 1-0.4 0.9-0.6 1.6-1.6 1.9-0.4 0.1-0.6 0.5-0.5 0.8s0.4 0.6 0.7 0.6h0.1c1.3-0.2 2.1-0.8 2.7-2l0.2-0.4c0.4-0.8 0.7-1.5 1.3-2.1 0.4-0.3 1-0.5 1.6-0.5 0.7 0 1.4 0.2 2 0.6 0.3 0.2 0.4 0.5 0.5 1 0.2 0.5 0.4 1 0.9 1.5 0.7 1.7 2.6 2.9 3.2 3.3 0.1 0.1 0.3 0.1 0.4 0.2-1.1 0.4-2.1 1.1-2.7 1.9h-0.3c-1.1 0-2 0.1-2.9 0.2-0.9 0.2-1.6 0.6-2.2 1-0.2 0.1-0.4 0.2-0.6 0.4-0.8 0.5-1.8 0.8-2.6 1-0.5 0.2-1.1 0.2-1.6 0.2-0.3 0-0.6 0-0.8-0.1-1.4-0.3-2.1-1.6-2.8-3-0.3-0.7-0.7-1.5-0.9-2.5-0.1-0.3-0.1-0.6-0.2-0.9-0.1-0.4-0.2-0.9-0.3-1.3s-0.4-0.6-0.8-0.6c-0.5 0-0.9 0.3-0.9 0.8-0.2 0.7 0 1.5 0.2 2.2v0.2c0.2 0.9 0.5 1.8 1 2.8 0.7 1.6 1.7 3.4 3.6 4.1 0.7 0.2 1.4 0.4 2.1 0.4 1.4 0 2.7-0.4 3.8-0.8 0.9-0.3 1.8-0.8 2.5-1.3l0.2-0.1c0.8-0.5 2-0.5 3.2-0.5 0 0.1 0.1 0.3 0.1 0.4 0.6 1.7 2.7 2.5 4.2 3.1l0.4 0.1c0.7 0.3 1.4 0.5 2 0.9 0.2 0.2 0.4 0.3 0.6 0.5 0.3 0.3 0.5 0.5 0.8 0.7 0.6 0.5 1.4 0.7 2.2 0.7 0.3 0 0.5 0 0.8-0.1 0.6-0.1 0.9-0.5 0.9-1.1 0-0.5-0.5-1-1.1-1h-0.2-0.3c-0.6 0-1-0.3-1.6-0.9-0.3-0.2-0.6-0.5-0.9-0.8-0.8-0.6-1.8-0.9-2.6-1.2-0.9-0.3-1.7-0.7-2.4-1.2-0.4-0.3-0.8-0.7-0.6-1.1 0.1-0.4 0.8-0.9 1.3-1.2 1.3-0.7 2.9-1.1 4.7-1.1h0.5c1.1 0 2.2 0.1 3.3 0.2s2.3 0.2 3.4 0.2c1 0 1.9-0.1 2.7-0.2 1.2-0.2 2.3-0.7 3.3-1.3 0 0.8 0.1 1.6 0.2 2.3 0.1 1 0.2 2.1 0.2 3.2 0 0.1-0.2 0.3-0.3 0.4-0.2 0.3-0.5 0.7-0.5 1.1-0.5 0.6-1 1-1.7 1.2-0.3 0.1-0.6 0.2-1 0.4-0.4 0.1-0.8 0.3-1.2 0.5-0.4 0.1-0.5 0.5-0.5 0.9 0 0.2 0.1 0.3 0.2 0.3 0.2 0.2 0.4 0.3 0.6 0.3 1.7 0 3-0.5 4.3-1.4 0.1-0.1 0.2-0.1 0.3-0.2 0.2 0.5 0.2 1.2 0.3 2.1v3.2c0 0.9-0.1 1.9-0.1 3v0.7c0 0.3 0 0.7 0.1 1 0 0.4 0.1 0.8 0.1 1.2-0.7-0.4-1.4-0.5-2.1-0.5h-0.5c-0.9-0.3-1.5-0.8-2-1.4-0.2-0.3-0.4-0.7-0.5-1.1s-0.3-0.9-0.6-1.3c-0.5-0.8-1.4-1.4-2.4-1.5h-0.1c-0.3 0-0.7 0.2-0.8 0.5-0.2 0.3-0.1 0.6 0.1 0.9l0.6 0.6 0.2 0.2c0.4 0.3 0.6 0.6 0.8 1 0.2 0.5 0.4 1.1 0.6 1.6 0.2 0.3 0.4 0.6 0.6 0.8 0.3 0.4 0.8 0.7 1.2 1-0.3 0.4-0.6 0.8-0.9 1.2s-0.5 0.8-0.8 1.1c-0.8 0.9-2.1 1-3.3 1h-1-0.4c-0.4 0-0.7 0.3-0.8 0.6-0.1 0.4 0.2 0.7 0.5 0.8 0.7 0.2 1.5 0.3 2.3 0.3s1.6-0.1 2.3-0.4c1.2-0.4 2.2-1.4 3-2.5l0.1-0.1c0.4-0.5 0.7-0.8 1.2-1 0.2-0.1 0.5-0.1 0.7-0.1 0.3 0 0.6 0.1 1 0.2l0.6 0.3c-0.2 0.5-0.4 0.9-0.8 1.3l-0.2 0.2v0.2 0.3c0.1 2.3-1.6 4-4.3 4z" class="st0"/>
   <path d="m803 555.3c-2.1 0-3.9-0.9-5.1-2.7 0.2-0.7 0.4-1.1 0.7-1.5 0.2-0.4 0.4-0.8 0.6-1.3 0.5 0.1 1.1 0.2 1.7 0.2h0.6c0.6 0 1-0.1 1.5-0.1h0.7c0.6 0 1.2 0.2 1.9 0.4l0.5 0.1c0.5 0.2 0.9 0.2 1.1 0.2 0.6 0 0.8-0.4 0.8-0.5 0.1-0.3 0.1-0.7-0.7-1.2-1.2-0.8-3.2-1.1-4.6-1.1h-0.1-0.9-1-0.4c-0.6 0-1.3-0.3-2.1-0.7-0.4-0.2-0.7-0.7-1-1.2l-0.5-0.8c-0.3-0.4-0.5-0.8-0.8-1.3-0.2-0.3-0.4-0.7-0.6-1-0.4-0.7-1.1-1.6-2-2.3-0.2-0.1-0.3-0.2-0.5-0.2-0.4 0-0.7 0.2-0.8 0.5s-0.1 0.7 0.2 0.9c0.8 0.6 1.2 1.5 1.6 2.3l0.2 0.4c0.1 0.2 0.2 0.5 0.3 0.7l0.1 0.2c0.6 1.2 1.3 2.6 2.5 3.4 0.1 0.1 0.2 0.1 0.3 0.2-0.1 0.3-0.3 0.7-0.5 1.1-0.3 0.5-0.5 0.9-0.7 1.3-0.9 0.5-1.9 0.8-2.9 0.8s-2.1-0.3-3.3-0.8c-2.7-1.3-5.1-3.8-6.8-5.8 1-1.1 1.1-2.7 1.2-3.8v-0.2c0.1-0.7 0.2-1.4 0.7-1.9 0.1-0.1 0.3-0.2 0.5-0.2 0.3 0 0.6 0.1 1 0.2 0.3 0.1 0.6 0.2 0.9 0.2h0.2c0.5 0 0.9-0.3 1-0.7s-0.1-0.9-0.5-1.1c-0.8-0.4-1.6-0.6-2.4-0.6-1 0-1.8 0.3-2.4 1-0.6 0.6-0.8 1.4-0.9 2.2-0.1 0.4-0.1 0.8-0.1 1.2 0 0.5-0.1 1-0.2 1.4-0.1 0.2-0.1 0.4-0.2 0.6-0.3-0.2-0.7-0.4-1.2-0.5-1.6-0.5-4-1.2-4-6.8 0-0.9 0.2-2.4 1.1-4.5 0.7 0 1.3-0.1 1.9-0.3 0.8-0.2 1.5-0.7 2.1-1.2 0.2-0.2 0.5-0.3 0.7-0.5 0.2-0.1 0.3-0.2 0.5-0.3l0.1-0.1c0.5-0.4 1.1-0.8 1.7-0.9 0.2-0.1 0.5-0.1 0.8-0.1 0.6 0 1.3 0.1 2.2 0.4 1.8 0.6 3.3 1.6 4.8 2.7l0.3 0.2c0.2 0.1 0.4 0.2 0.6 0.2 0.3 0 0.6-0.2 0.8-0.4 0.2-0.3 0.1-0.6 0-0.9-0.4-0.6-1-1-1.6-1.4-0.2-0.1-0.3-0.2-0.5-0.3-0.9-0.7-1.8-1.2-2.8-1.6-0.8-0.3-2.3-0.8-3.9-0.8-0.8 0-1.5 0.1-2 0.4-0.8 0.3-1.5 0.8-2.1 1.2-1 0.7-1.9 1.3-3 1.5-0.2 0-0.5 0.1-0.7 0.1-0.2-0.5-0.5-0.9-0.8-1.4-0.7-1.2-1.6-2.7-1.6-4.6 0-1.4 0.3-2.5 0.5-3.7l0.3-1.2c0.2-0.3 0.4-0.5 0.6-0.7 0.5-0.5 1.2-0.9 2.3-1.1 0.6-0.1 1.4-0.3 2.1-0.3 0.4 0 0.7 0 1 0.1 0.4 0.1 0.6 0.3 0.9 0.8 0.2 0.3 0.4 0.7 0.8 1 0.8 1.8 1.7 3.1 2.9 4.1s2.6 1.3 4 1.7c1.1 0.3 2.1 0.5 3 1.1 0.1 0.1 0.3 0.3 0.4 0.3 0.3 0.3 0.7 1 1.2 1.6 1.1 1.7 2.6 3.9 4.9 4.7 0.5 0.2 1.1 0.3 1.6 0.3 0.6 0 1.1-0.1 1.5-0.2 0.3-0.1 0.5-0.1 0.7-0.1 0.1 0 0.3 0 0.4 0.1 0.4 0.2 0.8 0.5 1.2 0.9 0.5 0.4 1 0.9 1.6 1.2 0.2 0.1 0.5 0.2 0.7 0.3s0.5 0.1 0.7 0.1c0.6 0 1.2-0.2 1.6-0.4s0.8-0.3 1.2-0.3 0.9 0.5 1.3 0.8l0.1 0.1c0.6 0.5 1.2 1.1 2.1 1.5h0.1c0.1 0.1 0.2 0.1 0.3 0.1 0.4 0.2 0.8 0.2 1.2 0.2 0.6 0 1.2-0.1 1.7-0.3 0.5-0.1 0.9-0.2 1.3-0.2h0.8 0.1c-0.2 0.4-0.3 0.9-0.5 1.4-0.7 2.2-1.6 5-4.3 6.7-0.3-0.4-0.8-0.7-1.3-1.1-0.3-0.2-0.7-0.5-1-0.7-0.4-0.3-0.8-0.5-1.2-0.8-0.1 0-0.3-0.2-0.3-0.2-1.2-0.9-2.4-1.4-3.8-1.6l-0.4-0.1c-0.6-0.1-1.2-0.2-1.7-0.5-0.4-0.2-0.7-0.8-1-1.2l-0.1-0.2c-0.4-0.7-0.8-1.3-1.5-1.8-0.4-0.3-0.8-0.5-1.3-0.6-0.2 0-0.4-0.1-0.6-0.1-0.5 0-1 0.1-1.4 0.2l-0.3 0.1c-0.5 0.1-1.1 0.1-1.7 0.1h-1c-0.2 0-0.5 0-0.7-0.1-0.6-0.1-1.1-0.1-1.7-0.1-0.9 0-1.6 0.1-2.2 0.4-1.8 0.9-1.4 2.5-1.2 3.3 0.1 0.3 0.4 0.6 0.8 0.6 0.2 0 0.5-0.1 0.6-0.3 0.2-0.2 0.2-0.4 0.2-0.7v-0.1c-0.2-0.8-0.1-0.9 0.2-1 0.5-0.2 1.1-0.3 1.5-0.3h0.3c0.5 0 1.1 0.1 1.7 0.1 0.6 0.1 1.2 0.1 1.9 0.1h0.5c0.4 0 0.8-0.1 1.2-0.2s0.8-0.2 1.2-0.2c0.2 0 0.4 0 0.6 0.1 0.1 0.1 0.2 0.1 0.3 0.2 0.4 0.3 0.6 0.7 0.8 1.2s0.5 1 0.9 1.4c0.9 1 2.2 1.3 3.3 1.6l0.4 0.1c0.5 0.1 1 0.2 1.4 0.4 0.5 0.2 0.9 0.5 1.3 0.8l0.1 0.1c0.2 0.1 0.3 0.2 0.5 0.4l0.9 0.6c0.5 0.4 1.1 0.7 1.6 1.1 0.1 0 0.1 0.1 0.1 0.1l0.1 0.1c0.3 0.3 0.5 0.6 0.7 0.9 0.1 0.1 0.1 0.2 0.2 0.4-0.1 0.4-0.2 0.7-0.4 1.2-0.4 0.9-1 1.7-1.7 2.5-2.5 2.8-6.1 4.6-9.3 4.6z" class="st0"/>
   <path d="m838.9 476c-0.1-0.3-0.2-0.6-0.3-0.8-0.1-0.3-0.2-0.5-0.2-0.6 0.9-2.5 0.3-8.3 0.3-8.6 0.1 0.2 0.2 0.3 0.4 0.5 0.7 0.7 1.4 1.3 2.2 1.5v0.7c0 0.4 0 0.8-0.1 1.1-0.1 0.2-0.1 0.4-0.2 0.6v0.1c-0.1 0.4-0.2 0.7-0.3 1l-0.1 0.3c-0.3 1.1-0.5 2.2-1.1 3.1-0.1 0.4-0.3 0.8-0.6 1.1z" class="st0"/>
   <path d="m869.2 555.3c-5 0-9.9-4.2-11.2-7.9l-0.1-0.3c0-0.1 0.1-0.3 0.2-0.4 0.1-0.2 0.3-0.4 0.5-0.7 0.2-0.2 0.3-0.3 0.5-0.4 0.5-0.4 1-0.7 1.5-1l0.1-0.1c0.5-0.3 1-0.6 1.4-1 0.5-0.4 1-0.7 1.5-0.9 0.4-0.2 0.9-0.3 1.4-0.4l0.4-0.1c1.2-0.3 2.4-0.6 3.3-1.6 0.4-0.4 0.7-0.9 0.9-1.4 0.3-0.5 0.5-0.9 0.8-1.2 0.2-0.2 0.5-0.3 0.9-0.3s0.8 0.1 1.2 0.2 0.8 0.2 1.2 0.2h0.5c0.6 0 1.3-0.1 1.9-0.1 0.6-0.1 1.1-0.1 1.7-0.1h0.3c0.4 0 0.8 0.1 1.1 0.1 0.2 0 0.3 0.1 0.5 0.2s0.3 0.2 0.2 0.6c0 0.1 0 0.2-0.1 0.3v0.1c0 0.2 0 0.5 0.2 0.7s0.4 0.3 0.6 0.3 0.5-0.1 0.6-0.3c0 0 0.1-0.1 0.2-0.3 0.2-0.8 0.6-2.4-1.2-3.3-0.5-0.3-1.1-0.4-1.9-0.4h-0.3c-0.5 0-1.1 0.1-1.6 0.1-0.3 0-0.5 0.1-0.8 0.1h-1c-0.6 0-1.2 0-1.7-0.2l-0.3-0.1c-0.5-0.1-0.9-0.2-1.4-0.2-0.2 0-0.4 0-0.6 0.1-1.6 0.3-2.3 1.5-2.8 2.4l-0.1 0.2c-0.3 0.5-0.6 1-1 1.2-0.5 0.3-1.1 0.4-1.7 0.5l-0.5 0.1c-1.5 0.3-2.7 0.8-4.1 1.8-0.4 0.3-0.8 0.5-1.2 0.8-0.3 0.2-0.6 0.4-0.8 0.6-0.4 0.3-1 0.7-1.5 1.2-0.2-0.1-0.4-0.3-0.6-0.4-2.2-1.7-3-4.3-3.7-6.3-0.2-0.5-0.3-0.9-0.5-1.3h0.2 0.8c0.4 0 0.9 0.1 1.3 0.2 0.6 0.1 1.2 0.3 1.8 0.3 0.4 0 0.7-0.1 1-0.2 0.1 0 0.1 0 0.2-0.1 1-0.4 1.7-1 2.4-1.6l0.1-0.1c0.5-0.5 1-0.9 1.4-0.9s0.8 0.1 1.2 0.3c0.5 0.2 1 0.4 1.7 0.4 0.2 0 0.5 0 0.7-0.1 0.9-0.3 1.6-0.9 2.3-1.4 0.4-0.3 0.8-0.7 1.2-0.9 0.1-0.1 0.3-0.1 0.4-0.1 0.2 0 0.4 0.1 0.7 0.1 0.4 0.1 0.9 0.2 1.5 0.2 0.5 0 0.9-0.1 1.4-0.2h0.1c2.3-0.8 3.7-3 4.9-4.7 0.4-0.7 0.8-1.3 1.2-1.7 0.1-0.1 0.3-0.2 0.4-0.3 0.9-0.5 1.9-0.8 2.9-1.1 1.4-0.4 2.7-0.7 4-1.7 1.2-0.9 2.1-2.2 2.9-4.1 0.4-0.3 0.6-0.6 0.8-0.9 0.3-0.4 0.5-0.7 0.9-0.8 0.3-0.1 0.6-0.1 1-0.1 0.7 0 1.5 0.2 2.1 0.3 1 0.2 1.8 0.6 2.2 1.1 0.2 0.2 0.4 0.4 0.6 0.7 0.1 0.5 0.2 0.9 0.3 1.3 0.3 1.2 0.5 2.3 0.5 3.7 0 2-0.8 3.4-1.6 4.6-0.3 0.5-0.6 0.9-0.8 1.4-0.3 0-0.5 0-0.7-0.1-1.1-0.2-2-0.8-3-1.5-0.7-0.5-1.4-0.9-2.1-1.3-0.6-0.3-1.3-0.4-2-0.4-1.5 0-3.1 0.5-3.9 0.8-1 0.4-1.9 0.9-2.8 1.6-0.1 0.1-0.3 0.2-0.4 0.3-0.6 0.4-1.2 0.9-1.6 1.5-0.2 0.3-0.2 0.6 0 0.9s0.5 0.4 0.8 0.4c0.2 0 0.4-0.1 0.6-0.2l0.3-0.2c3-2.2 3.6-2.3 4.8-2.7 0.9-0.3 1.6-0.4 2.2-0.4 0.3 0 0.6 0 0.8 0.1 0.6 0.2 1.1 0.5 1.7 0.9 0.2 0.1 0.4 0.3 0.6 0.4s0.4 0.3 0.6 0.4l0.1 0.1c0.6 0.4 1.3 1 2.1 1.2 0.6 0.2 1.2 0.3 1.9 0.3 0.9 2.1 1.1 3.6 1.1 4.5 0 5.6-2.4 6.3-4 6.8-0.4 0.1-0.8 0.2-1.2 0.5 0-0.1-0.1-0.2-0.1-0.3-0.1-0.5-0.1-1-0.2-1.4 0-0.5-0.1-0.8-0.1-1.2-0.1-0.7-0.3-1.6-0.9-2.2-0.6-0.7-1.5-1-2.4-1-0.8 0-1.6 0.2-2.4 0.6-0.4 0.2-0.6 0.6-0.5 1.1 0.1 0.4 0.5 0.7 1 0.7h0.1c0.3 0 0.6-0.1 0.9-0.2s0.7-0.2 1-0.2c0.2 0 0.3 0 0.5 0.2 0.5 0.5 0.6 1.2 0.7 1.9v0.1c0.1 1.1 0.2 2.5 1 3.6-1.5 1.8-3.7 4.1-6.2 5.5-1.4 0.8-2.7 1.2-4 1.2-1 0-1.9-0.3-2.8-0.8-0.2-0.4-0.4-0.9-0.7-1.3-0.2-0.4-0.4-0.8-0.6-1.1 0.1-0.1 0.2-0.1 0.3-0.2 1.2-0.8 1.9-2.3 2.5-3.4l0.1-0.2c0.1-0.2 0.2-0.5 0.4-0.7 0.5-1 0.9-2 1.8-2.7 0.3-0.2 0.4-0.6 0.2-0.9-0.1-0.3-0.5-0.5-0.8-0.5-0.2 0-0.4 0.1-0.5 0.2-1.2 0.9-1.9 2.1-2.6 3.4-0.2 0.4-0.5 0.9-0.8 1.3l-0.4 0.6-0.1 0.2c-0.3 0.4-0.6 0.9-1 1.2-0.7 0.4-1.4 0.7-2.1 0.7h-0.4-1-0.9-0.1c-1.4 0-3.4 0.4-4.6 1.1-0.7 0.4-0.8 0.9-0.7 1.2s0.3 0.5 0.8 0.5c0.2 0 0.6-0.1 1.1-0.2l0.5-0.1c0.6-0.2 1.2-0.4 1.9-0.4h0.7 1.4 0.7c0.6 0 1.2-0.1 1.7-0.2 0.2 0.5 0.4 0.9 0.6 1.3 0.3 0.4 0.5 0.8 0.7 1.5-1.3 1.6-3.1 2.5-5.2 2.5z" class="st0"/>
   <path d="m894.8 496.2l-0.3 0.6c-0.5 0.7-1.1 1.4-1.9 2-0.6 0.5-1.4 1.2-2.2 1.6-0.4 0.2-1 0.4-1.5 0.4-0.2 0-0.4 0-0.5-0.1-0.5-0.4-0.1-1.5 0.1-2.2 0 0 0.1-0.4 0.1-0.5 0.3-1 0.6-1.9 1-2.7 0.1-0.2 0.2-0.4 0.3-0.5 0.3-0.6 0.7-1.2 0.9-1.8 0.1-0.3 0-0.6-0.1-0.8-0.2-0.2-0.5-0.4-0.8-0.4s-0.5 0.1-0.7 0.3c-0.5 0.5-0.9 1-1.3 1.7 0-0.1-0.1-0.2-0.1-0.3-0.3-0.7-0.8-1.4-1.4-1.8-0.5-0.4-1-0.6-1.5-0.8-0.2-0.1-0.4-0.1-0.6-0.2-1.1-0.5-1.9-1.6-2.3-3.2-0.1-0.5-0.2-0.9-0.2-1.3v-0.4c0-0.3 0.1-0.6 0.1-0.8 0-0.7-0.1-1.5-0.5-2.3 0.6-1.5 0.5-3.1-0.1-4.4l-0.3-0.6c-0.7-1.5-1.5-3.7-3.7-4.2h-0.2c-0.3 0-0.6 0.2-0.8 0.5s-0.1 0.6 0.1 0.9l0.9 0.9c0.5 0.4 0.9 0.7 1.1 1.2 0.1 0.2 0.1 0.3 0.2 0.5v0.1c0.1 0.2 0.2 0.5 0.3 0.7l0.2 0.4c0.1 0.3 0.3 0.6 0.4 0.9 0.3 1.3-0.2 2.9-1.2 4-0.6 0.6-1.2 1-1.8 1.1-0.3 0.1-0.7 0.1-1.1 0.1-0.5 0-0.9-0.1-1.5-0.1h-0.2c-0.3 0-0.5-0.1-0.8-0.1s-0.7 0-1.1 0.1c0.1-1.5-0.1-2.9-0.8-4-0.1-0.3-0.4-0.4-0.7-0.4-0.2 0-0.5 0.1-0.6 0.3-0.2 0.2-0.2 0.4-0.2 0.7l0.1 0.3c0.1 0.4 0.2 0.9 0.2 1.3 0 0.8 0 1.7-0.2 2.7-0.2 0.8-0.6 1.4-1 2.2-0.3 0.5-0.6 1-0.7 1.5-1.1-1-2-1.5-2.9-1.5-0.2 0-0.4 0-0.5 0.1-0.4 0.1-0.6 0.4-0.6 0.8s0.2 0.7 0.6 0.8c0.2 0.1 0.4 0.1 0.6 0.2 0.3 0.1 0.5 0.1 0.7 0.2 0.4 0.2 0.7 0.4 1 0.6 0.5 0.4 0.8 0.7 1.1 1.1 0 0.4 0.1 0.8 0.3 1.1 0.6 1.7 1.8 3 3.4 3.7 1 0.4 2.1 0.7 3 0.9 0.5 0.1 0.9 0.2 1.4 0.2 0.6 0.1 1.1 0.2 1.7 0.3 0.9 0.2 1.7 0.7 2.4 1.4 0.6 0.6 0.7 1.5 0.8 2.4 0.1 1-0.2 1.9-0.4 2.9-0.2 0.9-0.5 1.9-0.4 2.9 0 1.5 0.1 3.1 1.2 4.3 0.2 0.2 0.4 0.4 0.7 0.6-0.2 0.1-1.1 0.4-1.1 0.4-1.2 0.4-1.9 1-2.3 1.8s-0.6 1.7-0.5 2.8c0 0.4 0.1 0.8 0.1 1.1 0.1 0.6 0.1 1.2 0.1 1.7-0.1 1-0.3 2-0.2 3.2 0 0.4-0.1 0.7-0.4 1.1-0.8 0.6-1.4 1.5-2 2.3-1 1.3-2 2.6-3.5 3.3-0.3 0.1-0.6 0.2-0.9 0.2-0.2 0-0.4 0-0.7-0.1s-0.5-0.1-0.9-0.1c-0.2 0-0.4 0-0.7 0.1s-0.7 0.3-1 0.5c-2.3 1.6-3.3 1.8-3.8 1.8-0.3 0-0.5 0-0.8-0.1h-0.1c0.2-0.3 0.4-0.5 0.5-0.8 0.5-0.8 0.8-1.5 1.2-2.4 0.7-1.8 1-3.5 0.8-4.9-0.1-0.7-0.3-1.5-0.8-2.1l0.1-0.3c0.2-0.4 0.5-0.7 1-1s1-0.7 1.5-0.8c0.4-0.1 0.8-0.1 1.3-0.2h0.6 0.6c0.3 0 0.4 0 0.5 0.1 0.4 0.2 0.8 0.5 1.1 0.8 0.3 0.4 0.6 0.9 0.9 1.3 0.2 0.4 0.4 0.7 0.6 1 0.2 0.2 0.4 0.3 0.7 0.3 0.2 0 0.4-0.1 0.5-0.2 0.2-0.2 0.2-0.4 0.2-0.6-0.1-1.6-0.8-3-1.8-3.9-0.5-0.4-1.2-0.9-2-1h-0.7c-0.5 0-1 0.1-1.3 0.1h-0.3c-0.9 0.1-1.6 0.5-2.1 0.9-0.2 0.1-0.3 0.2-0.5 0.3-0.5 0.3-0.9 0.6-1.3 1-0.3 0.3-0.5 0.6-0.7 0.9-0.7-0.5-1.4-0.7-2.2-0.7-0.5 0-0.9 0.1-1.4 0.2-1 0.3-1.7 0.9-2.4 1.4-0.3 0.2-0.6 0.5-0.9 0.7-0.7 0.4-1.3 0.6-2 0.7-0.2 0-1 0.1-1 0.1-0.3 0-0.6 0-0.9 0.1-0.4 0.1-0.7 0.4-0.7 0.8s0.3 0.8 0.7 0.8c0.4 0.1 0.8 0.1 1.3 0.1h0.4 0.2c0.7 0 1.3-0.2 1.8-0.3 0.9-0.3 1.5-0.8 2.2-1.3 0.2-0.1 0.3-0.2 0.4-0.3 0.8-0.6 1.5-0.9 2.2-0.9 0.3 0 0.6 0.1 0.9 0.3 0.7 0.5 1.2 1.3 1.2 2.3 0 1.1-0.3 2.2-0.6 3.2l-0.2 0.4c-0.3 0.9-0.6 1.6-1 2.1-0.5 0.8-1.1 1.4-1.9 2.1-0.1 0.1-0.2 0.2-0.4 0.3-0.7 0.5-1.4 0.9-2.2 1.3-0.1 0.1-0.2 0.1-0.3 0.2-0.4 0.2-0.7 0.2-1 0.3h-0.3c-0.4 0-0.8 0-1.2-0.1-0.4 0-0.7-0.1-0.9-0.1h-0.5c-0.5 0-0.9-0.1-1.4-0.1h-0.8c-0.2-0.1-0.4-0.1-0.6-0.1-0.6 0-1.2 0.3-1.8 0.6-0.9 0.5-2 1.1-3.7 1.1-1 0-1.9-0.2-2.6-0.6s-1.3-1-1.6-1.6c-0.2-0.4-0.3-0.8-0.3-1.2v-0.3-0.2l-0.2-0.2c-0.4-0.4-0.6-0.8-0.8-1.3 0.2-0.2 0.4-0.3 0.6-0.3 0.4-0.1 0.7-0.2 1-0.2s0.5 0 0.7 0.1c0.5 0.2 0.8 0.5 1.2 1l0.1 0.1c0.8 1 1.8 2.1 3 2.5 0.7 0.3 1.5 0.4 2.3 0.4s1.5-0.1 2.3-0.3c0.4-0.1 0.6-0.5 0.5-0.9s-0.4-0.6-0.8-0.6h-0.4-1c-1.4 0-2.5-0.2-3.3-1-0.3-0.3-0.5-0.7-0.8-1.1s-0.5-0.8-0.9-1.2c0.5-0.3 0.9-0.6 1.2-1 0.6-0.7 0.9-1.4 1.1-2l0.1-0.4c0.2-0.4 0.4-0.7 0.8-1l0.2-0.1c0.3-0.2 0.5-0.4 0.7-0.6 0.2-0.3 0.3-0.6 0.1-0.9s-0.5-0.5-0.8-0.5h-0.1c-1 0.1-1.9 0.7-2.4 1.5-0.3 0.5-0.4 0.9-0.6 1.3l-0.1 0.3c-0.1 0.3-0.2 0.6-0.4 0.8-0.5 0.6-1.2 1.1-2 1.4h-0.5c-0.7 0-1.4 0.2-2.1 0.6 0-0.4 0-0.8 0.1-1.2 0-0.4 0.1-0.9 0.1-1.3v-0.4c0-1.1 0-2.1-0.1-3 0-1.2-0.1-2.3 0-3.1 0-0.9 0.1-1.5 0.2-2 1.3 1.2 2.8 1.8 4.6 1.8 0.5 0 0.8-0.3 0.9-0.6 0-0.2 0-0.4-0.1-0.6s-0.2-0.3-0.4-0.3c-0.4-0.2-0.8-0.3-1.1-0.4-0.4-0.1-0.7-0.3-1.1-0.4-0.6-0.3-1.1-0.6-1.7-1.3l-0.1-0.1c0.1-0.5-0.2-0.9-0.5-1.2-0.1-0.2-0.3-0.4-0.3-0.5 0-1 0.1-2.1 0.2-3.1 0.1-0.8 0.2-1.6 0.2-2.4 1 0.7 2.1 1.1 3.3 1.3 0.8 0.1 1.7 0.2 2.7 0.2 1.1 0 2.3-0.1 3.4-0.2s2.2-0.2 3.3-0.2h0.5c1.9 0 3.5 0.4 4.7 1.1 0.6 0.3 1.2 0.7 1.3 1.2 0.1 0.4-0.3 0.8-0.6 1.1-0.7 0.5-1.6 0.9-2.4 1.2-0.9 0.3-1.8 0.7-2.6 1.3-0.3 0.2-0.6 0.5-0.9 0.8-0.6 0.5-1 0.9-1.6 0.9h-0.3-0.2c-0.7 0-1.1 0.5-1.1 1s0.3 1 0.9 1.1c0.3 0 0.6 0.1 0.8 0.1 0.8 0 1.6-0.2 2.2-0.7 0.3-0.2 0.5-0.5 0.8-0.7l0.6-0.6c0.5-0.4 1.3-0.7 1.9-0.9l0.4-0.2c1.5-0.6 3.6-1.4 4.3-3.1 0-0.1 0.1-0.3 0.1-0.4 1.2 0 2.3 0 3.2 0.5l0.2 0.1c0.8 0.5 1.6 1 2.5 1.3 1.1 0.4 2.5 0.8 3.8 0.8 0.8 0 1.5-0.1 2.1-0.4 1.9-0.7 2.9-2.5 3.6-4.1 0.5-1 0.8-2 1-2.8v-0.2c0.2-0.7 0.4-1.5 0.2-2.2-0.1-0.4-0.4-0.8-0.9-0.8-0.4 0-0.7 0.2-0.8 0.6s-0.2 0.9-0.3 1.3c-0.1 0.3-0.1 0.7-0.2 1-0.3 1-0.6 1.8-0.9 2.5-0.6 1.3-1.4 2.7-2.8 3-0.3 0-0.6 0.1-0.9 0.1-0.5 0-1-0.1-1.6-0.2-1-0.3-1.9-0.5-2.6-1-0.2-0.1-0.3-0.2-0.5-0.3-0.7-0.4-1.4-0.9-2.3-1-0.9-0.2-1.8-0.2-2.9-0.2h-0.3c-0.6-0.9-1.7-1.5-2.7-1.9 0.1-0.1 0.3-0.1 0.4-0.2 0.6-0.3 2.6-1.5 3.2-3.3 0.5-0.5 0.7-1 0.8-1.5 0.2-0.4 0.3-0.8 0.6-1 0.5-0.4 1.3-0.6 2-0.6 0.6 0 1.2 0.2 1.6 0.5 0.7 0.5 1 1.3 1.3 2.1l0.2 0.4c0.5 1.2 1.4 1.8 2.7 2h0.1c0.4 0 0.7-0.3 0.8-0.6 0.1-0.4-0.1-0.7-0.5-0.8-0.9-0.3-1.2-1-1.5-1.9-0.1-0.4-0.3-0.7-0.5-1-0.4-0.7-1.3-2.2-3.1-2.6h-0.2c0.6-0.9 0.8-1.7 0.7-2.5-0.1-0.9-0.8-1.4-1.3-1.8l-0.1-0.1c-0.8-0.6-1.2-1.2-1.3-1.9-0.1-0.4-0.4-0.7-0.8-0.7-0.2 0-0.4 0.1-0.5 0.2-0.2 0.1-0.2 0.4-0.2 0.6 0 0.8 0.3 1.5 0.8 2.1 0.2 0.3 0.5 0.5 0.8 0.8l0.7 0.7c0.3 0.5-0.1 1.2-0.7 1.8-0.1 0.1-0.3 0.2-0.4 0.3-0.3 0.2-0.7 0.5-1 0.9-0.4 0.2-0.8 0.4-1.1 0.7l-0.5 0.5c-0.5-0.5-1.1-0.9-1.9-1.1-0.3-0.1-0.6-0.1-1-0.2-0.6-0.1-1.3-0.2-1.5-0.5s-0.3-0.6-0.4-1c-0.1-0.3-0.2-0.5-0.3-0.8-0.2-0.3-0.5-0.6-0.9-0.6-0.5 0-0.9 0.3-1 0.8-0.1 1.2 0.3 2.9 1.9 3.7 0.5 0.2 1.1 0.3 1.5 0.4 0.4 0 0.7 0.1 1 0.2s1.1 0.4 1.2 1.1c0.3 1.2-1.2 2.5-2.2 3-0.8 0.5-1.6 0.7-2.3 0.9-0.3 0-0.5 0.1-0.6 0.1-0.6-0.1-1.3-0.1-2-0.1-1.1 0-2.3 0.1-3.4 0.2s-2.2 0.2-3.4 0.2h-1.2c-1.8-0.1-3.1-0.6-4.1-1.4-0.1-0.1-0.2-0.3-0.3-0.5-0.1-0.1-0.1-0.2-0.2-0.4-0.1-0.1-0.1-0.2-0.2-0.3 1.2-0.9 1.7-2.2 2.1-3.4 0.5-1.3 0.9-2.5 2.2-3.1 0.7-0.3 1.4-0.3 2.4-0.3h1.1c0.3 0 0.8 0 1.3-0.1 1-0.1 1.7-0.3 2.2-0.7s0.7-0.7 1-1.1c0.1-0.1 0.2-0.3 0.3-0.4 0.2-0.2 0.2-0.6 0.1-0.8-0.1-0.3-0.4-0.4-0.7-0.4-0.2 0-0.3 0-0.5 0.1-0.3 0.2-0.5 0.4-0.6 0.6-0.4 0.4-0.7 0.6-1.1 0.7-0.6 0.1-1.2 0.2-1.7 0.2h-1.1-0.9c-1 0-2.2 0.1-3.3 0.8-0.6 0.4-1.2 1-1.7 1.6-0.4 0.5-0.6 1.1-0.8 1.6l-0.1 0.3c-0.1 0.2-0.2 0.5-0.3 0.8-0.1 0.4-0.3 0.9-0.5 1.2 0-0.4 0.1-1 0.1-1.5 0-1.5-0.2-3-0.3-4.4-0.1-0.9-0.2-1.7-0.3-2.6h0.1v-0.5c0-0.6 0.3-1.3 0.4-1.7 0.4-1.1 1-2.2 1.7-3.1 0.7-0.8 1.3-1.4 2.3-1.6h0.3c1.2 0 1.9 1 2.6 2 0.9 1.3 2.2 2 3.6 2h0.5c0.5-0.1 1.1-0.2 1.5-0.3 0.7-0.1 1.3-0.3 2-0.3 0.3 0 0.5 0 0.8 0.1 0.9 0.2 1.4 0.6 1.4 1.5 0.1 0.8 0.1 1.6 0.1 2.4v0.8c0 0.4 0.4 0.7 0.8 0.7s0.8-0.3 0.8-0.7c0-0.5 0.1-0.9 0.2-1.4 0.2-0.9 0.3-1.9 0.1-2.9-0.2-0.5-0.5-1.2-1.1-1.6 0.1 0 0.3 0 0.7-0.1 0.3 0 0.5 0 0.6-0.1 0.5-0.1 1.1-0.3 1.7-0.6 1.3-0.6 2.3-1.5 2.9-2.5 0.5-0.9 0.9-2 1-3.2 0.1-0.5 0.1-1 0.1-1.6v-1-0.7c0-0.2-0.1-0.4-0.2-0.5-0.2-0.3-0.5-0.5-0.8-0.5-0.4 0-0.7 0.2-0.8 0.5-0.1 0.1-0.2 0.4-0.3 0.7v0.6c0 0.6 0 1-0.1 1.4-0.1 1.1-0.4 2-0.9 2.7-0.3 0.5-0.6 0.8-1 1.1-0.3 0.2-0.6 0.3-0.9 0.5-0.3 0.1-0.6 0.2-0.8 0.4-0.1 0-0.3 0.1-0.5 0.2-0.7 0.2-1.7 0.5-1.9 1.3-0.5-0.1-1.1-0.2-1.8-0.2-0.9 0-1.9 0.1-3.1 0.4-0.3 0.1-0.7 0.1-1 0.1s-0.5 0-0.7-0.1c-0.5-0.3-0.8-0.6-1.1-1.1-0.1-0.1-0.2-0.3-0.3-0.4-0.8-1-1.9-2.2-3.7-2.3h-0.4c-2.2 0-3.6 1.2-4.7 2.6 0.1-0.8 0.1-1.6 0.1-2.4 0-0.6-0.1-1.1-0.2-1.5s-0.2-0.8-0.2-1.2c0-0.8 0-1.5 0.1-2.2 0.3-0.6 0.7-1.1 1.3-1.5 0.7-0.5 1.6-0.9 2.7-1.1 0.7-0.1 1.5-0.3 2.2-0.3 0.3 0 0.7 0 0.9 0.1 1 0.2 1.9 0.7 2.7 1.4l1.2 1.2c0.3 0.3 0.6 0.7 0.9 1 1.8 1.7 3.9 2 5.8 2 0.5 0 0.8-0.3 0.9-0.7s-0.2-0.8-0.7-0.9c-0.2-0.1-0.5-0.1-0.8-0.2-0.9-0.2-1.8-0.4-2.5-0.8s-1.3-1-1.8-1.7l-0.4-0.5-0.6-0.6c0.6 0 1.1-0.1 1.5-0.2 1.1-0.3 2-0.8 2.9-1.3 0.2-0.1 0.5-0.3 0.7-0.4h0.1c0.6-0.3 1.2-0.7 1.8-0.7h0.7 0.6c0.7 0 1.2 0.2 1.6 0.3 0.2 0.2 0.5 0.3 0.8 0.3h0.2c0.4-0.1 0.6-0.4 0.6-0.8 0-0.3-0.2-0.6-0.4-0.7l-0.2-0.2c-0.2-0.1-0.5-0.3-0.7-0.4-0.5-0.2-1-0.3-1.7-0.5-0.4-0.1-0.7-0.1-1.1-0.1-0.8 0-1.6 0.2-2.4 0.4-0.6 0.2-1.2 0.6-1.8 0.9s-1.2 0.7-1.9 0.9c-0.9 0.2-1.7 0.3-2.4 0.3h-1.1-0.9c-1 0-1.3-0.1-1.5-0.1s-0.4-0.1-0.8-0.1h-0.4c-0.9 0-2 0.1-3.2 0.5 0.1-0.2 0.2-0.4 0.2-0.6 0.5-1.2 0.8-2.5 1-3.7 0.2-1 0.4-2 0.3-3 0.8 0 1.7-0.2 2.5-0.6 1.1-0.5 2-1.3 2.7-2.4 0.6-1 1.2-1.8 2.2-2.5 0.6-0.5 1.9-1.4 1.6-2.9-0.2-0.7-0.6-1.9-1.5-2.5-0.1-0.1-0.3-0.1-0.5-0.1-0.3 0-0.6 0.1-0.7 0.4-0.2 0.3-0.2 0.6 0 0.9l0.2 0.3c0.3 0.5 0.8 1.3 0.7 1.7 0 0.4-0.5 0.7-1 1-0.2 0.1-0.4 0.3-0.6 0.4-0.7 0.5-1.1 1.2-1.5 1.8-0.6 0.8-1.1 1.6-2 2-0.6 0.3-1.2 0.4-1.8 0.4-1 0-1.8-0.4-2.3-1.2-0.3-0.4-0.5-0.8-0.7-1.2-0.2-0.3-0.4-0.6-0.6-1l-0.1-0.2c0-0.1-0.1-0.1-0.2-0.2 0.5-1.4 1.5-2.4 2.9-3.2 2.5-1.3 6.3-2.1 8.7-2.1 4.3 0 6.7 1.6 8.3 2.6 0.8 0.5 1.4 0.9 1.9 0.9h0.5 0.3c-0.1 0.2-0.3 0.5-0.4 0.7-1 1.2-2.5 1.9-3.6 2.3-0.8 0.3-1.6 0.5-2.4 0.5h-0.6c-0.6 0-1.3 0.1-1.9 0.2-0.4 0.1-0.6 0.4-0.7 0.8 0 0.4 0.2 0.7 0.6 0.8 0.7 0.2 1.4 0.3 2.1 0.3-0.6 0.6-1.3 1.4-1.8 2.4l-0.1 0.1c-0.3 0.7-0.7 1.5-0.7 2.4 0 0.4 0.4 0.8 0.9 0.8 0.3 0 0.5-0.1 0.7-0.4 0.4-0.5 0.6-1.1 0.8-1.6 0.1-0.4 0.3-0.8 0.5-1.1 0.5-0.7 1.1-1.4 1.8-2 0.5-0.4 1-0.7 1.6-1.1 0.3-0.1 0.5-0.3 0.8-0.4l0.1-0.1c0.4-0.2 0.8-0.4 1.1-0.7 1.6-0.9 2.6-1.8 3.2-3l0.1-0.1 0.1 0.1 0.1 0.2h0.3c0.8-0.1 1.4-0.1 2-0.1 6.5 0 8.5 3.7 9.5 5.7 0 0.1 0.1 0.2 0.1 0.2-0.1 0.1-0.2 0.3-0.4 0.4-0.1 0-0.4 0.1-0.8 0.1h-0.7c-0.6 0-1.2-0.2-2-0.4-1.2-0.3-2.5-0.7-3.9-0.7h-0.5c-1.5 0-2.7 0.1-3.7 0.4-1.1 0.3-2.3 0.8-3 1.8-0.2 0.3-0.2 0.6 0 0.9s0.5 0.4 0.8 0.4c0.1 0 0.3 0 0.4-0.1 0.3-0.1 0.6-0.3 0.9-0.5s0.6-0.3 0.8-0.4c0.5-0.2 1.1-0.4 1.7-0.5 0.9-0.1 1.7-0.2 2.4-0.2 0.6 0 1.2 0.1 1.7 0.1 0.5 0.1 1 0.2 1.4 0.4 0.8 0.3 1.7 0.5 2.6 0.6h0.3c-0.2 0.3-0.4 0.7-0.6 1-0.3 0.7-0.8 1.7-0.5 2.8 0.1 0.4 0.4 0.6 0.8 0.6s0.7-0.2 0.8-0.6c0.1-0.3 0.2-0.5 0.3-0.8s0.2-0.5 0.3-0.8c0.2-0.5 0.5-0.9 0.8-1.4s0.7-0.9 1.1-1.3l0.3-0.3c2.5 1.4 4.6 2.9 6.4 4.4 1.2 1 2.2 2 3.1 3.1 1.6 2 2.8 4 3.5 6.3h-0.2-0.8c-0.6 0-1.1 0.1-1.5 0.3-0.7 0.3-1.2 0.9-1.9 1.5l-0.3 0.3c-0.3 0.3-0.3 0.6-0.1 1 0.1 0.3 0.4 0.5 0.8 0.5 0.1 0 0.2 0 0.3-0.1 0.3-0.1 0.6-0.4 1.1-0.8 0.2-0.2 0.8-0.7 0.9-0.7 0.3-0.1 0.7-0.1 1.1-0.1h0.3 0.4c0.3 0 0.7 0.1 1 0.1h0.3c2.2 2.4 3.3 6.9 2.7 11.1z" class="st0"/>
   <path d="m879.9 522.4v-1.1c0-0.2 0.1-0.5 0.1-0.7 0.1-0.3 0.1-0.6 0.2-0.9 0.1-0.6 0-1.2 0-1.8-0.1-2-0.1-3.1 1.5-3.6 1.1-0.3 2.3-0.7 3.1-1.6 0.3-0.3 0.6-0.6 0.8-0.9 0.1-0.2 0.3-0.3 0.4-0.5l0.1-0.1c0.3-0.3 0.6-0.7 0.8-1.2 0.3-1 0.8-2.8-0.1-3.9-0.4-0.5-1-0.8-1.7-0.8-0.5 0-0.8 0.3-0.9 0.8 0 0.4 0.3 0.8 0.8 0.9 0.2 0 0.3 0.1 0.3 0.1 0.2 0.3 0.1 1.3-0.2 1.9-0.2 0.4-0.5 0.7-0.8 1.2-0.1 0.1-0.2 0.3-0.3 0.4l-0.3 0.3c-0.3 0-0.6-0.2-0.9-0.4-0.4-0.4-0.7-0.9-0.8-1.6-0.1-0.8-0.2-1.5-0.1-2.1s0.2-1.3 0.4-1.9c0.1-0.3 0.2-0.7 0.2-1 0.3-1.2 0.5-3.6-0.5-5.5-0.9-1.6-2.6-2.7-4.6-3-1-0.2-2.1-0.4-3.3-0.7-0.9-0.2-1.8-0.4-2.5-0.9-1.2-0.7-2-2.4-1.8-3.6 0.2-0.7 0.5-1.3 0.9-2 0.2-0.4 0.5-0.8 0.7-1.3 0.2-0.1 0.3-0.2 0.4-0.2 0.3-0.1 0.6-0.2 0.9-0.2 0.2 0 0.5 0 0.7 0.1 0.8 0.2 1.5 0.4 2.3 0.4 0.3 0 0.7 0 1-0.1 1.2-0.2 2.3-0.8 3.2-1.6-0.1 0.7-0.1 1.5 0.1 2.4 0.4 1.8 1.1 3 2 3.8 0.6 0.5 1.3 0.9 2.1 1.1 0.8 0.3 1.3 0.6 1.7 1.1 0.5 0.7 0.8 1.4 0.8 2.1v1.2 0.3l-0.3 1.2c-0.5 2.2-0.1 3.7 1.2 4.3 0.5 0.2 1.1 0.3 1.7 0.3 1.5 0 3.1-0.7 4.8-2.2 0.8-0.7 1.5-1.4 2-2.1 1 2 1.7 4.1 0.9 6.9-0.5 0.8-1.2 1.6-2.1 2.4-0.2 0.2-0.4 0.3-0.6 0.5-0.6 0.5-1 0.9-1.8 1.2-0.5 0.2-1.2 0.5-1.9 0.9-1.8 1-2.5 3-3.2 5-0.9 2.5-1.7 4.9-4.7 5.8-1 0.2-1.8 0.5-2.7 0.9z" class="st0"/>
   <path d="m895.7 515.6c-0.7-0.4-1.5-0.6-2.2-0.7h-0.8c-1 0-2.1 0.2-3 0.5 0.2-0.6 0.4-1.1 0.6-1.4 0.5-0.7 1.3-1.1 2.1-1.6 0.1-0.1 0.3-0.2 0.4-0.2 0.2-0.1 0.4-0.2 0.5-0.3 0.8-0.4 1.4-0.8 2-1.2 0 0.3 0.1 0.6 0.1 0.9 0.1 0.6 0.1 1.2 0.1 1.7 0.2 0.9 0.2 1.6 0.2 2.3z" class="st0"/>
  </g>
 </g>
</svg>
