<?xml version="1.0" encoding="UTF-8" standalone="no"?>
<!-- Created with Inkscape (http://www.inkscape.org/) -->
<svg xmlns:rdf="http://www.w3.org/1999/02/22-rdf-syntax-ns#" xmlns="http://www.w3.org/2000/svg" height="361" width="361" version="1.1" xmlns:cc="http://creativecommons.org/ns#" xmlns:dc="http://purl.org/dc/elements/1.1/" viewBox="0 0 95.514581 95.514586">
 <metadata>
  <rdf:RDF>
   <cc:Work rdf:about="">
    <dc:format>image/svg+xml</dc:format>
    <dc:type rdf:resource="http://purl.org/dc/dcmitype/StillImage"/>
    <dc:title/>
   </cc:Work>
  </rdf:RDF>
 </metadata>
 <g transform="translate(0 -201.49)">
  <g fill="#c1bfd0" transform="matrix(1.1275 0 0 .60119 -644.08 101.91)">
   <path d="m640 278.8c-1.8 2.3-3.5 4.8-4.7 7.4 1.3-1.9 3.6-4.5 5.6-6.5 1.3-1.3 2.6-2.4 3.3-3-0.6 0.9-1.3 2.4-2 4.3-3.2 9-6.8 27.2-8.8 39.3-1 5.5-11.7 7.4-18.2 4.6-0.5-0.2-1-0.4-1.4-0.7-1.3-0.7-2.3-1.7-2.9-2.9-0.2-0.4-0.3-0.8-0.5-1.2-0.4-1.4-0.3-2.9 0.4-4.8 3.9-10.5 7.5-34.9 1.3-44.5-4.2-6.6-12.3-14.5-9.8-26 0 0 2.6-0.1 4.8 1.1 0.8 0.5 1.6 1.1 2.1 2.1 0.1 0.1 0.1 0.2 0.2 0.3-0.3 15.5 7 15.8 10.9 26.5 3.3 8.8 2.5 20.7 1.5 29.8h0.1c2.3-12.6 3.9-26.9-3-37.6-1.5-2.3-3.1-4.4-4.3-6.5-1.7-2.9-2.2-6.1-2.3-9.4v-2c6.1-8 24.6 9.7 34.8-10.8 0 0 4.6-2.4 6.9-2 0.7 0.1 1.1 0.5 1.2 1.2v0.3c0.6 4.5-1.3 10.8-1.8 14.6-1.3 11.6-5 15.9-9.7 21.4-1.1 1.8-2.5 3.4-3.7 5z" class="st0"/>
   <path d="m652.6 227.6c-0.4 1.2-1 2.2-1.8 2.9-0.2 0.2-0.4 0.4-0.6 0.5-1.7 1.2-4 1.3-5.7 0.7-1.4 5.2-6.7 8-12.9 9.1-1.6 0.3-3.3 0.4-4.9 0.5-4.9 0.1-9.9-0.6-13.6-2-2.7-1-5.2-2.2-7.4-3.8-1.6-1.2-3.1-2.6-4.3-4.3-1-1.5-1.8-3.2-2.3-5.3-0.3-1.4-0.6-2.8-0.8-4.2 0.5-2.5 1-5 1.3-7.5l0.3-3.6v-1.5c0-3.6-0.6-7.1-1.8-10.4 0.5 2.9 0.6 5.9 0.2 8.8-0.1 1-0.3 1.9-0.5 2.9-0.1 0.6-0.3 1.1-0.4 1.7-0.1 0.3-0.1 0.5-0.2 0.8-0.1-0.4-0.1-0.8-0.2-1.2-0.5-2.6-1.2-5.2-2.5-7.9-2.8-6.2-8.1-12.6-18.8-18.8-0.1 0-0.2-0.1-0.3-0.1-1.2-0.7-2-1.6-2.5-2.6-2.8-6.1 7.8-15.9 14.7-13.2 0.3 0.1 0.6 0.3 0.9 0.4 0.6 0.3 1.1 0.8 1.6 1.3 1 1.1 2 2.2 2.9 3.2 8.5 9.3 12.8 13.3 25.7 26 3 3 5.5 5.4 7.8 7.5l0.1 0.1c3.7 3.3 6.5 5.5 8.8 7.6 1.1 1 2.2 2 3.1 3.1l0.1 0.1c1.1 1.2 2.1 2.6 3.1 4.2 0.9 1.5 1.9 3.4 2.8 5.5-0.1-1.2-0.4-2.3-0.7-3.4-0.2-0.6-0.4-1.1-0.6-1.7-2.7-7.3-9-13.5-16.1-20.6 5.8 1.1 13.4 2.4 18.8 6 2 1.3 3.8 3 5.1 5.1 0.6 1 1.1 2 1.4 3.2 1.2 3.6 1.2 7.4 0.2 10.9z" class="st0"/>
  </g>
 </g>
</svg>
